<?xml version="1.0" encoding="utf-8"?>
<!-- Generator: Adobe Illustrator 15.0.0, SVG Export Plug-In . SVG Version: 6.00 Build 0)  -->
<!DOCTYPE svg PUBLIC "-//W3C//DTD SVG 1.1//EN" "http://www.w3.org/Graphics/SVG/1.1/DTD/svg11.dtd">
<svg version="1.1" id="Layer_1" xmlns="http://www.w3.org/2000/svg" xmlns:xlink="http://www.w3.org/1999/xlink" x="0px" y="0px"
	 width="800px" height="106px" viewBox="0 0 800 106" enable-background="new 0 0 800 106" xml:space="preserve">
<g>
	<path d="M71.015,46.338c-3.226-9.758-7.532-17.375-12.92-22.849c-5.39-5.473-11.223-8.211-17.503-8.211
		c-4.073,0-7.341,1.126-9.801,3.374c-2.462,2.249-3.692,5.199-3.692,8.847c0,1.953,0.382,3.755,1.146,5.41s1.866,3.035,3.31,4.136
		c1.442,1.189,3.584,2.504,6.429,3.946c2.842,1.444,5.919,2.801,9.229,4.074l11.838,4.455c7.212,2.8,12.517,6.132,15.912,9.993
		c3.393,3.863,5.091,8.592,5.091,14.193c0,3.989-0.807,7.701-2.418,11.138c-1.613,3.437-3.819,6.409-6.619,8.91
		c-2.801,2.504-6.132,4.477-9.993,5.919c-3.862,1.442-8.041,2.164-12.538,2.164c-3.227,0-7.192-0.319-11.902-0.955
		c-4.709-0.636-9.865-1.547-15.466-2.737c-1.867-0.423-3.204-0.7-4.01-0.827c-0.807-0.127-1.549-0.191-2.227-0.191
		c-1.273,0-2.228,0.213-2.864,0.637c-0.637,0.426-1.082,1.231-1.336,2.419H9.405L8.132,60.849h1.273
		c1.442,4.837,3.521,9.59,6.237,14.256c2.715,4.668,6.024,9.166,9.929,13.494c3.819,4.244,7.383,7.236,10.692,8.974
		c3.31,1.74,7.084,2.609,11.329,2.609c4.328,0,7.806-1.188,10.438-3.564c2.629-2.375,3.946-5.516,3.946-9.419
		c0-3.648-1.422-6.83-4.265-9.547c-2.844-2.715-7.446-5.303-13.811-7.765L31.427,65.05c-8.063-3.225-13.918-6.703-17.566-10.438
		c-3.649-3.733-5.474-8.146-5.474-13.238c0-3.902,0.847-7.552,2.546-10.947c1.696-3.393,4.01-6.343,6.938-8.847
		c2.928-2.502,6.406-4.456,10.438-5.855c4.03-1.4,8.421-2.1,13.175-2.1c1.273,0,2.546,0.043,3.819,0.126
		c1.272,0.085,2.629,0.235,4.073,0.446c1.442,0.213,3.098,0.509,4.965,0.892c1.866,0.381,4.029,0.871,6.492,1.464
		c2.375,0.594,4.284,0.891,5.728,0.891c0.933,0,1.611-0.191,2.037-0.573c0.424-0.382,0.764-1.124,1.019-2.228h1.273l1.4,31.696
		H71.015z"/>
	<path d="M113.785,34.881c8.994,0,16.886,2.844,23.676,8.529c3.988,3.31,6.916,7.045,8.783,11.201c1.866,4.159,2.8,8.911,2.8,14.257
		c0,4.583-0.913,8.869-2.737,12.857c-1.826,3.99-4.328,7.49-7.51,10.501c-3.182,3.013-6.917,5.368-11.201,7.065
		c-4.286,1.696-8.891,2.546-13.812,2.546c-4.922,0-9.527-0.872-13.811-2.61c-4.286-1.738-8-4.093-11.138-7.064
		c-3.141-2.97-5.623-6.492-7.447-10.565c-1.826-4.073-2.737-8.485-2.737-13.238c0-4.666,0.911-9.058,2.737-13.175
		c1.824-4.115,4.306-7.657,7.447-10.629c3.138-2.969,6.852-5.324,11.138-7.064C104.258,35.753,108.862,34.881,113.785,34.881z
		 M113.785,36.536c-3.48,0-6.068,1.868-7.765,5.601c-0.935,1.953-1.635,5.262-2.1,9.929c-0.468,4.668-0.701,10.1-0.701,16.293
		c0,7.468,0.318,13.557,0.955,18.266c0.636,4.71,1.591,7.956,2.864,9.738c1.611,2.546,3.902,3.819,6.873,3.819
		c3.479,0,6.067-1.866,7.765-5.601c0.933-1.865,1.633-5.134,2.101-9.802c0.465-4.666,0.7-10.056,0.7-16.166
		c0-15.19-1.273-24.651-3.819-28.386C118.96,37.768,116.668,36.536,113.785,36.536z"/>
	<path d="M182.141,57.412c13.067-0.593,20.663-6.788,22.785-18.584h1.273v38.824h-1.273c-0.509-2.629-1.507-5.111-2.991-7.446
		c-1.486-2.333-3.268-4.37-5.346-6.11c-2.081-1.738-4.372-3.075-6.874-4.01c-2.504-0.932-5.028-1.356-7.574-1.273v19.731
		c0,2.631,0.063,4.859,0.19,6.683c0.127,1.826,0.318,3.374,0.573,4.646c0.254,1.272,0.593,2.334,1.019,3.182
		c0.423,0.849,0.975,1.613,1.655,2.291c0.592,0.681,1.251,1.231,1.973,1.655c0.72,0.426,1.528,0.786,2.419,1.082
		c0.891,0.298,1.952,0.509,3.182,0.637c1.229,0.127,2.693,0.191,4.392,0.191v1.273h-52.317V98.91
		c2.801-0.169,4.857-0.51,6.174-1.019c1.314-0.509,2.438-1.356,3.373-2.546c0.509-0.678,0.911-1.378,1.209-2.1
		c0.296-0.72,0.529-1.675,0.7-2.864c0.169-1.188,0.275-2.737,0.318-4.646c0.042-1.91,0.064-4.348,0.064-7.319V37.045
		c0-2.969-0.022-5.409-0.064-7.319c-0.043-1.909-0.149-3.457-0.318-4.646c-0.171-1.188-0.404-2.142-0.7-2.864
		c-0.298-0.72-0.701-1.42-1.209-2.1c-0.935-1.188-2.059-2.037-3.373-2.546c-1.317-0.509-3.373-0.847-6.174-1.018v-1.274h73.576
		l5.346,31.696h-1.272c-0.935-2.46-1.846-4.646-2.737-6.555c-0.891-1.91-1.846-3.648-2.864-5.219
		c-1.018-1.569-2.101-3.033-3.246-4.392c-1.146-1.356-2.482-2.673-4.01-3.946c-3.65-3.225-7.554-5.707-11.711-7.447
		c-4.159-1.738-8.318-2.609-12.475-2.609h-3.691V57.412z"/>
	<path d="M292.758,91.654c-4.414,3.649-8.232,6.259-11.457,7.829c-3.226,1.569-6.451,2.355-9.674,2.355
		c-6.959,0-11.245-4.03-12.857-12.093c-3.055,4.328-6.364,7.427-9.928,9.293c-3.564,1.865-7.893,2.8-12.984,2.8
		c-5.347,0-9.696-1.295-13.048-3.883c-3.354-2.587-5.028-5.96-5.028-10.12c0-1.866,0.319-3.564,0.955-5.091
		c0.636-1.528,1.675-2.97,3.119-4.328c1.442-1.356,3.351-2.715,5.728-4.073c2.375-1.357,5.303-2.757,8.783-4.201
		c3.055-1.357,6.449-2.673,10.184-3.946c3.733-1.272,7.806-2.545,12.22-3.819v-6.619c0-4.328-0.127-7.574-0.382-9.738
		c-0.254-2.164-0.722-3.755-1.4-4.773c-1.444-2.036-3.354-3.055-5.729-3.055c-1.867,0-3.585,0.445-5.155,1.336
		c-1.571,0.892-2.737,2.145-3.501,3.755c-0.254,0.595-0.489,1.125-0.7,1.591c-0.213,0.467-0.382,1.062-0.51,1.782
		c-0.126,0.722-0.276,1.677-0.445,2.864c-0.171,1.189-0.382,2.8-0.636,4.837c-0.509,4.074-1.973,7.278-4.392,9.611
		c-2.418,2.335-5.454,3.5-9.101,3.5c-2.632,0-4.774-0.827-6.429-2.482c-1.655-1.655-2.482-3.797-2.482-6.429
		c0-5.26,3.861-10.012,11.583-14.257c2.375-1.356,5.07-2.609,8.083-3.755c3.011-1.146,6.066-2.142,9.165-2.991
		c3.097-0.848,6.193-1.506,9.292-1.974c3.097-0.465,6.002-0.7,8.72-0.7c2.545,0,4.751,0.276,6.619,0.827
		c1.866,0.553,3.521,1.464,4.964,2.737c1.866,1.444,3.161,3.227,3.883,5.347c0.72,2.122,1.082,5.008,1.082,8.656v29.277
		c0,2.462,0.042,4.223,0.127,5.283c0.083,1.062,0.338,1.973,0.764,2.736c0.338,0.85,0.933,1.508,1.783,1.974
		c0.847,0.467,1.824,0.7,2.928,0.7c0.763,0,1.505-0.105,2.227-0.318c0.72-0.21,1.675-0.656,2.864-1.336L292.758,91.654z
		 M258.771,63.904c-2.886,0.935-5.304,1.909-7.255,2.928c-1.954,1.019-3.501,2.208-4.647,3.564
		c-1.146,1.358-1.953,2.928-2.418,4.709c-0.468,1.783-0.701,3.863-0.701,6.238c0,3.818,0.615,6.746,1.846,8.783
		c1.229,2.037,3.076,3.055,5.538,3.055c2.375,0,4.242-0.848,5.601-2.546c1.357-1.696,2.037-4.029,2.037-7.001V63.904z"/>
	<path d="M316.306,54.357c2.546-6.789,5.346-11.731,8.401-14.83c3.055-3.097,6.619-4.646,10.692-4.646
		c1.611,0,3.119,0.276,4.519,0.827c1.4,0.553,2.63,1.336,3.692,2.355c1.06,1.019,1.887,2.208,2.482,3.564
		c0.592,1.358,0.891,2.801,0.891,4.329c0,3.055-0.954,5.601-2.864,7.637c-1.909,2.037-4.222,3.055-6.938,3.055
		c-2.376,0-4.371-0.72-5.982-2.164c-0.254-0.169-0.467-0.338-0.636-0.509c-0.171-0.169-0.362-0.382-0.573-0.637
		c-0.213-0.254-0.509-0.636-0.891-1.145c-0.382-0.51-0.913-1.229-1.591-2.165c-1.358-1.696-2.673-2.546-3.946-2.546
		c-1.613,0-2.928,0.892-3.946,2.673c-0.509,0.85-0.913,1.718-1.208,2.61c-0.298,0.891-0.532,1.995-0.701,3.309
		c-0.171,1.317-0.276,2.928-0.318,4.837c-0.044,1.91-0.063,4.265-0.063,7.065v15.911c0,3.227,0.105,5.814,0.318,7.765
		c0.211,1.953,0.679,3.437,1.4,4.456c0.72,1.018,1.738,1.718,3.055,2.1c1.315,0.381,3.119,0.617,5.41,0.7v1.273H284.61V98.91
		c2.291-0.083,4.093-0.319,5.41-0.7c1.315-0.382,2.333-1.083,3.055-2.1c0.72-1.019,1.188-2.502,1.4-4.456
		c0.211-1.951,0.319-4.539,0.319-7.765V63.013c0-3.819-0.171-6.661-0.51-8.528c-0.34-1.866-1.018-3.479-2.036-4.837
		c-0.935-1.188-2.017-2.057-3.246-2.61c-1.231-0.551-2.908-0.911-5.028-1.082l-0.254-1.273c3.393-0.764,6.321-1.464,8.783-2.101
		c2.46-0.636,4.837-1.293,7.128-1.973c2.291-0.678,4.729-1.464,7.319-2.355c2.588-0.891,5.707-2.015,9.356-3.373V54.357z"/>
	<path d="M411.52,46.338c-3.227-9.758-7.532-17.375-12.92-22.849c-5.39-5.473-11.224-8.211-17.503-8.211
		c-4.073,0-7.34,1.126-9.801,3.374c-2.462,2.249-3.692,5.199-3.692,8.847c0,1.953,0.382,3.755,1.146,5.41
		c0.764,1.655,1.866,3.035,3.31,4.136c1.442,1.189,3.584,2.504,6.429,3.946c2.842,1.444,5.919,2.801,9.229,4.074l11.838,4.455
		c7.212,2.8,12.517,6.132,15.912,9.993c3.393,3.863,5.091,8.592,5.091,14.193c0,3.989-0.807,7.701-2.419,11.138
		c-1.612,3.437-3.818,6.409-6.618,8.91c-2.801,2.504-6.132,4.477-9.992,5.919c-3.863,1.442-8.042,2.164-12.539,2.164
		c-3.226,0-7.192-0.319-11.902-0.955c-4.709-0.636-9.865-1.547-15.466-2.737c-1.867-0.423-3.204-0.7-4.01-0.827
		c-0.807-0.127-1.549-0.191-2.227-0.191c-1.273,0-2.228,0.213-2.864,0.637c-0.636,0.426-1.082,1.231-1.336,2.419h-1.273
		l-1.273-39.333h1.273c1.442,4.837,3.521,9.59,6.237,14.256c2.716,4.668,6.025,9.166,9.93,13.494
		c3.818,4.244,7.382,7.236,10.692,8.974c3.31,1.74,7.084,2.609,11.329,2.609c4.328,0,7.806-1.188,10.438-3.564
		c2.628-2.375,3.946-5.516,3.946-9.419c0-3.648-1.423-6.83-4.265-9.547c-2.844-2.715-7.446-5.303-13.811-7.765l-12.474-4.837
		c-8.063-3.225-13.919-6.703-17.567-10.438c-3.649-3.733-5.473-8.146-5.473-13.238c0-3.902,0.847-7.552,2.545-10.947
		c1.697-3.393,4.01-6.343,6.938-8.847c2.928-2.502,6.407-4.456,10.438-5.855c4.03-1.4,8.421-2.1,13.175-2.1
		c1.273,0,2.546,0.043,3.819,0.126c1.273,0.085,2.629,0.235,4.073,0.446c1.443,0.213,3.098,0.509,4.965,0.892
		c1.866,0.381,4.03,0.871,6.492,1.464c2.374,0.594,4.284,0.891,5.728,0.891c0.933,0,1.611-0.191,2.037-0.573
		c0.424-0.382,0.764-1.124,1.019-2.228h1.272l1.4,31.696H411.52z"/>
	<path d="M454.289,34.881c8.994,0,16.887,2.844,23.677,8.529c3.987,3.31,6.915,7.045,8.783,11.201c1.865,4.159,2.8,8.911,2.8,14.257
		c0,4.583-0.913,8.869-2.736,12.857c-1.826,3.99-4.328,7.49-7.511,10.501c-3.182,3.013-6.917,5.368-11.201,7.065
		c-4.286,1.696-8.891,2.546-13.812,2.546c-4.922,0-9.526-0.872-13.811-2.61c-4.286-1.738-8-4.093-11.139-7.064
		c-3.141-2.97-5.623-6.492-7.446-10.565c-1.826-4.073-2.737-8.485-2.737-13.238c0-4.666,0.911-9.058,2.737-13.175
		c1.823-4.115,4.306-7.657,7.446-10.629c3.139-2.969,6.853-5.324,11.139-7.064C444.763,35.753,449.367,34.881,454.289,34.881z
		 M454.289,36.536c-3.48,0-6.068,1.868-7.765,5.601c-0.935,1.953-1.635,5.262-2.101,9.929c-0.467,4.668-0.7,10.1-0.7,16.293
		c0,7.468,0.318,13.557,0.955,18.266c0.637,4.71,1.591,7.956,2.864,9.738c1.611,2.546,3.902,3.819,6.873,3.819
		c3.479,0,6.066-1.866,7.765-5.601c0.934-1.865,1.634-5.134,2.102-9.802c0.465-4.666,0.699-10.056,0.699-16.166
		c0-15.19-1.272-24.651-3.818-28.386C459.465,37.768,457.173,36.536,454.289,36.536z"/>
	<path d="M568.979,47.738h-1.273c-2.886-10.267-6.683-18.245-11.392-23.932c-4.711-5.685-9.866-8.529-15.467-8.529
		c-2.886,0-5.518,0.808-7.892,2.419c-2.378,1.613-4.328,3.904-5.855,6.874c-2.463,4.668-4.328,10.205-5.602,16.611
		c-1.272,6.409-1.909,13.601-1.909,21.576c0,13.155,1.738,23.04,5.219,29.659c1.273,2.462,3.097,4.372,5.474,5.728
		c2.375,1.358,5.048,2.037,8.02,2.037c4.157,0,7.064-1.273,8.719-3.819c1.655-2.546,2.482-7.001,2.482-13.366V73.96
		c0-2.206-0.148-4.074-0.445-5.601c-0.298-1.527-0.85-2.757-1.655-3.692c-0.807-0.932-1.867-1.674-3.182-2.227
		c-1.316-0.551-2.991-0.997-5.027-1.337v-1.273h43.916v1.273c-1.954,0.171-3.438,0.467-4.456,0.892
		c-1.019,0.425-1.91,1.189-2.673,2.291c-0.51,0.68-0.914,1.358-1.209,2.036c-0.299,0.681-0.531,1.508-0.7,2.482
		c-0.172,0.977-0.277,2.164-0.319,3.564c-0.044,1.4-0.063,3.119-0.063,5.155v22.658h-1.272c-0.85-2.715-2.291-4.073-4.327-4.073
		c-0.682,0-1.338,0.063-1.974,0.19c-0.638,0.127-1.974,0.531-4.011,1.209c-4.498,1.444-8.932,2.526-13.301,3.246
		c-4.373,0.72-8.509,1.082-12.411,1.082c-5.941,0-11.542-1.167-16.803-3.501c-5.263-2.333-9.865-5.494-13.812-9.483
		c-3.946-3.988-7.087-8.612-9.419-13.875c-2.336-5.261-3.501-10.862-3.501-16.803c0-6.11,1.293-12.071,3.883-17.884
		c2.587-5.812,6.215-10.84,10.883-15.084c8.485-7.721,19.009-11.583,31.569-11.583c2.714,0,5.578,0.19,8.591,0.572
		c3.013,0.382,6.768,1.041,11.266,1.973c1.952,0.425,3.438,0.637,4.456,0.637c1.526,0,2.46-0.72,2.8-2.165h1.272L568.979,47.738z"/>
	<path d="M615.314,34.881c8.994,0,16.887,2.844,23.676,8.529c3.988,3.31,6.916,7.045,8.783,11.201
		c1.865,4.159,2.801,8.911,2.801,14.257c0,4.583-0.913,8.869-2.736,12.857c-1.826,3.99-4.329,7.49-7.511,10.501
		c-3.183,3.013-6.918,5.368-11.201,7.065c-4.286,1.696-8.891,2.546-13.812,2.546c-4.923,0-9.528-0.872-13.812-2.61
		c-4.286-1.738-8-4.093-11.139-7.064c-3.14-2.97-5.622-6.492-7.445-10.565c-1.827-4.073-2.737-8.485-2.737-13.238
		c0-4.666,0.91-9.058,2.737-13.175c1.823-4.115,4.306-7.657,7.445-10.629c3.139-2.969,6.853-5.324,11.139-7.064
		C605.786,35.753,610.392,34.881,615.314,34.881z M615.314,36.536c-3.48,0-6.068,1.868-7.766,5.601
		c-0.935,1.953-1.634,5.262-2.101,9.929c-0.467,4.668-0.699,10.1-0.699,16.293c0,7.468,0.317,13.557,0.955,18.266
		c0.636,4.71,1.591,7.956,2.864,9.738c1.61,2.546,3.901,3.819,6.873,3.819c3.479,0,6.066-1.866,7.766-5.601
		c0.932-1.865,1.633-5.134,2.1-9.802c0.465-4.666,0.699-10.056,0.699-16.166c0-15.19-1.272-24.651-3.818-28.386
		C620.49,37.768,618.198,36.536,615.314,36.536z"/>
	<path d="M683.924,34.881c8.994,0,16.887,2.844,23.676,8.529c3.988,3.31,6.916,7.045,8.783,11.201
		c1.866,4.159,2.801,8.911,2.801,14.257c0,4.583-0.913,8.869-2.736,12.857c-1.825,3.99-4.329,7.49-7.51,10.501
		c-3.184,3.013-6.919,5.368-11.202,7.065c-4.286,1.696-8.891,2.546-13.812,2.546c-4.923,0-9.527-0.872-13.812-2.61
		c-4.286-1.738-8-4.093-11.139-7.064c-3.14-2.97-5.622-6.492-7.445-10.565c-1.827-4.073-2.737-8.485-2.737-13.238
		c0-4.666,0.91-9.058,2.737-13.175c1.823-4.115,4.306-7.657,7.445-10.629c3.139-2.969,6.853-5.324,11.139-7.064
		C674.396,35.753,679.001,34.881,683.924,34.881z M683.924,36.536c-3.48,0-6.067,1.868-7.766,5.601
		c-0.935,1.953-1.634,5.262-2.101,9.929c-0.467,4.668-0.699,10.1-0.699,16.293c0,7.468,0.317,13.557,0.955,18.266
		c0.636,4.71,1.591,7.956,2.864,9.738c1.61,2.546,3.901,3.819,6.873,3.819c3.479,0,6.066-1.866,7.766-5.601
		c0.932-1.865,1.633-5.134,2.1-9.802c0.465-4.666,0.699-10.056,0.699-16.166c0-15.19-1.272-24.651-3.818-28.386
		C689.1,37.768,686.808,36.536,683.924,36.536z"/>
	<path d="M759.918,91.654c-3.056,3.564-6.154,6.154-9.293,7.765c-3.141,1.611-6.491,2.419-10.057,2.419
		c-3.31,0-6.386-0.744-9.229-2.228c-2.844-1.483-5.304-3.542-7.382-6.173c-2.081-2.629-3.691-5.748-4.838-9.356
		c-1.146-3.606-1.719-7.531-1.719-11.774c0-5.175,0.911-10.034,2.738-14.576c1.822-4.539,4.283-8.506,7.382-11.902
		c3.098-3.393,6.746-6.066,10.947-8.019c4.2-1.952,8.72-2.928,13.557-2.928c1.441,0,2.692,0.107,3.756,0.318
		c1.059,0.212,2.438,0.658,4.137,1.336v-4.964c0-3.819-0.172-6.639-0.51-8.465c-0.34-1.824-1.019-3.416-2.037-4.773
		c-0.934-1.273-2.017-2.184-3.245-2.737c-1.231-0.551-2.908-0.869-5.028-0.955l-0.255-1.4c2.884-0.593,5.855-1.251,8.91-1.973
		c3.056-0.72,6.066-1.464,9.038-2.228c2.97-0.764,5.792-1.547,8.465-2.355c2.674-0.806,5.069-1.591,7.192-2.355v71.157
		c0,3.141,0.105,5.665,0.318,7.574c0.211,1.909,0.656,3.417,1.336,4.519c0.679,1.104,1.633,1.889,2.864,2.355
		c1.229,0.467,2.864,0.785,4.901,0.955v1.273c-3.055,0.849-5.772,1.613-8.147,2.292c-2.376,0.68-4.731,1.358-7.063,2.036
		c-2.336,0.681-4.818,1.444-7.447,2.292c-2.631,0.849-5.729,1.866-9.292,3.055V91.654z M759.918,43.665
		c0-2.206-0.573-3.946-1.72-5.219c-1.145-1.273-2.694-1.909-4.646-1.909c-4.072,0-7.15,2.737-9.229,8.21
		c-2.08,5.473-3.118,13.473-3.118,23.995c0,8.91,0.868,15.318,2.608,19.221c1.739,3.904,4.52,5.855,8.338,5.855
		c1.528,0,2.843-0.296,3.946-0.891c1.102-0.593,2.374-1.739,3.819-3.437V43.665z"/>
</g>
</svg>
