<?xml version="1.0" standalone="no"?>
<!DOCTYPE svg PUBLIC "-//W3C//DTD SVG 1.1//EN" "http://www.w3.org/Graphics/SVG/1.1/DTD/svg11.dtd" >
<svg xmlns="http://www.w3.org/2000/svg">
<metadata></metadata>
<defs>
<font id="supergroteskcomp-mediumRg" horiz-adv-x="1155" >
<font-face units-per-em="2048" ascent="1597" descent="-451" />
<missing-glyph horiz-adv-x="512" />
<glyph unicode="&#xfb01;" horiz-adv-x="1177" d="M41 635l31 225h112v266q0 186 99.5 278.5t275.5 92.5h27q14 0 28 -2v-225q-12 2 -23 3t-22 1q-78 0 -103.5 -43t-25.5 -105v-266h615v-860h-256v635h-359v-635h-256v635h-143zM799 1024v287h256v-287h-256z" />
<glyph unicode="&#xfb02;" horiz-adv-x="1177" d="M41 635l31 225h112v266q0 186 101.5 277.5t287.5 91.5h482v-1495h-256v1280h-185q-55 0 -88.5 -11.5t-52 -30.5t-26 -48t-7.5 -64v-266h174v-225h-174v-635h-256v635h-143z" />
<glyph unicode="&#xfb03;" horiz-adv-x="1792" d="M41 635l31 225h112v266q0 186 99.5 278.5t275.5 92.5h27q14 0 28 -2v-225q-12 2 -23 3t-22 1q-78 0 -103.5 -43t-25.5 -105v-266h359v266q0 186 99 278.5t276 92.5h26q14 0 29 -2v-225q-12 2 -23.5 3t-21.5 1q-78 0 -103.5 -43t-25.5 -105v-266h614v-860h-256v635h-358 v-635h-256v635h-359v-635h-256v635h-143zM1413 1024v287h256v-287h-256z" />
<glyph unicode="&#xfb04;" horiz-adv-x="1792" d="M41 635l31 225h112v266q0 186 99.5 278.5t275.5 92.5h27q14 0 28 -2v-225q-12 2 -23 3t-22 1q-78 0 -103.5 -43t-25.5 -105v-266h359v266q0 186 101 277.5t288 91.5h481v-1495h-256v1280h-184q-55 0 -89 -11.5t-52.5 -30.5t-25.5 -48t-7 -64v-266h174v-225h-174v-635 h-256v635h-359v-635h-256v635h-143z" />
<glyph horiz-adv-x="0" />
<glyph unicode="&#xd;" horiz-adv-x="512" />
<glyph unicode=" "  horiz-adv-x="512" />
<glyph unicode="&#x09;" horiz-adv-x="512" />
<glyph unicode="&#xa0;" horiz-adv-x="512" />
<glyph unicode="!" horiz-adv-x="552" d="M143 0v287h267v-287h-267zM143 410v1065h267v-1065h-267z" />
<glyph unicode="&#x22;" horiz-adv-x="696" d="M82 1475h225l-20 -553h-185zM389 1475h225l-20 -553h-184z" />
<glyph unicode="#" horiz-adv-x="1310" d="M82 328v215h205v338h-205v215h205v297h225v-297h287v297h225v-297h205v-215h-205v-338h205v-215h-205v-328h-225v328h-287v-328h-225v328h-205zM512 543h287v338h-287v-338z" />
<glyph unicode="$" horiz-adv-x="1075" d="M51 188l185 181q37 -51 88 -95.5t137 -60.5v418q-63 27 -126 59.5t-112 79.5t-79.5 113.5t-30.5 160.5q0 164 97 262.5t251 120.5v150h164v-147q104 -12 184 -56.5t145 -116.5l-145 -182q-35 51 -83 82t-101 43v-381q68 -29 137 -63.5t124.5 -86t91.5 -124t36 -176.5 q0 -82 -26.5 -152t-78 -122t-123 -86t-161.5 -46v-147h-164v147q-72 8 -131.5 29.5t-108.5 51.5t-91 66.5t-79 77.5zM358 1044q0 -49 28 -83.5t75 -63.5v295q-43 -18 -73 -56t-30 -92zM625 217q49 14 86 50t37 102t-35 107.5t-88 76.5v-336z" />
<glyph unicode="%" horiz-adv-x="1392" d="M82 1085q0 170 82 259.5t205 89.5t204.5 -89.5t81.5 -259.5t-81.5 -259t-204.5 -89t-205 89t-82 259zM164 0l840 1393h225l-840 -1393h-225zM276 1085q0 -78 19.5 -131t73.5 -53q27 0 44 15.5t28.5 41t15.5 58t4 69.5q0 94 -19.5 139.5t-70.5 45.5q-55 0 -75 -53.5 t-20 -131.5zM737 328q0 170 82 259t205 89t205 -89t82 -259t-82 -259t-205 -89t-205 89t-82 259zM932 328q0 -78 19.5 -131.5t72.5 -53.5q27 0 44 15.5t28.5 41t15.5 58.5t4 70q0 94 -19.5 139t-70.5 45q-55 0 -74.5 -53t-19.5 -131z" />
<glyph unicode="&#x26;" horiz-adv-x="1269" d="M20 430q0 78 23 139.5t59.5 110.5t86 87t102.5 69q-16 20 -35.5 44.5t-35 57.5t-26 74t-10.5 94q0 70 26 127t72 98t109.5 64.5t140.5 23.5q76 0 140.5 -23.5t110.5 -65.5t72 -99t26 -125q0 -59 -20.5 -107.5t-55.5 -88.5t-81 -72.5t-95 -61.5l284 -346q39 88 39 195 q0 27 -2 55.5t-8 56.5h225q12 -78 13 -147q0 -104 -27 -194.5t-74 -166.5l191 -229h-287l-59 72q-80 -53 -179.5 -83t-212.5 -30q-109 0 -201.5 33t-161.5 94t-109 148.5t-40 195.5zM266 430q0 -61 21.5 -107.5t58.5 -77t85 -46t101 -15.5q131 0 238 72l-338 408 q-72 -45 -119 -99.5t-47 -134.5zM410 1106q0 -47 24.5 -86t59.5 -80q72 31 116.5 71t44.5 95q0 61 -30.5 95t-92.5 34q-61 0 -91.5 -34t-30.5 -95z" />
<glyph unicode="'" horiz-adv-x="389" d="M82 1475h225l-20 -553h-185z" />
<glyph unicode="(" horiz-adv-x="727" d="M61 686q0 152 36 291t95.5 260t137.5 222.5t162 178.5l184 -184q-72 -66 -135.5 -148.5t-110.5 -181t-74.5 -209t-27.5 -229.5t28.5 -226.5t76.5 -203.5t110.5 -180t132.5 -158l-184 -184q-84 76 -162 178t-137.5 224t-95.5 260.5t-36 289.5z" />
<glyph unicode=")" horiz-adv-x="727" d="M51 -82q70 74 132.5 158t110.5 180t76.5 203.5t28.5 226.5t-27.5 229.5t-74.5 209t-110.5 181.5t-135.5 148l185 184q84 -78 161.5 -179t137 -222t95.5 -260t36 -291t-36 -290t-95.5 -260t-137.5 -224t-161 -178z" />
<glyph unicode="*" horiz-adv-x="913" d="M123 1038l180 99l-180 98l82 141l174 -106l-4 205h164l-4 -205l174 106l82 -141l-181 -98l181 -99l-82 -141l-174 107l4 -205h-164l4 205l-174 -107z" />
<glyph unicode="+" d="M96 512v225h369v369h225v-369h369v-225h-369v-369h-225v369h-369z" />
<glyph unicode="," horiz-adv-x="593" d="M82 -225q47 47 64.5 105.5t17.5 119.5v287h266v-287q0 -109 -58.5 -195t-166.5 -133z" />
<glyph unicode="-" horiz-adv-x="655" d="M82 389v225h491v-225h-491z" />
<glyph unicode="." horiz-adv-x="593" d="M164 0v287h266v-287h-266z" />
<glyph unicode="/" horiz-adv-x="860" d="M0 -205l635 1802h225l-635 -1802h-225z" />
<glyph unicode="0" d="M45 696q0 168 35 305.5t102.5 232.5t167 147.5t228.5 52.5t228 -52.5t166.5 -147.5t102.5 -232.5t35 -305.5q0 -170 -35 -306t-102.5 -231.5t-166.5 -147.5t-228 -52t-228.5 52t-167 147.5t-102.5 231.5t-35 306zM301 696q0 -248 72.5 -380t204.5 -132q131 0 203.5 131 t72.5 381t-72.5 381t-203.5 131t-204 -130t-73 -382z" />
<glyph unicode="1" d="M184 909v281l320 203h246v-1147h280v-246h-833v246h297v860z" />
<glyph unicode="2" d="M72 991q6 104 48 186.5t110.5 138.5t158.5 87t195 31q121 0 211 -35t150.5 -92.5t90 -133t29.5 -157.5q0 -131 -51 -218t-127 -146.5t-165 -101.5t-165 -84t-127 -93t-51 -127h696l-41 -246h-942v164q0 147 53.5 248.5t133 171t172 118t172 93.5t133 95t53.5 124 q0 80 -58.5 137t-166.5 57q-109 0 -174.5 -64.5t-79.5 -189.5z" />
<glyph unicode="3" d="M41 307l225 92q27 -57 63 -98t74.5 -66.5t79.5 -38t80 -12.5q45 0 90 12.5t79 41t55.5 75.5t21.5 117q0 53 -21.5 95t-55.5 71t-79 44t-90 15h-67v205h67q31 0 61.5 12.5t56.5 38t41 63.5t15 91q0 55 -46 99t-128 44q-41 0 -72.5 -9t-58 -30.5t-49.5 -57.5t-45 -87 l-232 57q51 174 161 263.5t296 89.5q100 0 180 -29t135.5 -79t85 -117.5t29.5 -143.5q0 -111 -47 -182.5t-117 -112.5v-4q45 -16 88.5 -48t76 -77t52 -103t19.5 -128q0 -217 -135 -334t-367 -117q-109 0 -190.5 28.5t-144 77t-107.5 111t-80 131.5z" />
<glyph unicode="4" d="M14 246l656 1147h266v-922h143v-225h-143v-246h-256v246h-666zM362 471h318v553h-4z" />
<glyph unicode="5" d="M10 221l185 166q47 -92 124.5 -147.5t182.5 -55.5q59 0 111.5 21.5t91 61.5t61 93.5t22.5 118.5q0 57 -22.5 111.5t-61 96.5t-91 66.5t-111.5 24.5q-98 0 -181 -34.5t-167 -108.5l41 758h718l-28 -226h-475l-9 -213q37 14 81 21.5t122 7.5q84 0 164 -34t141.5 -98.5 t98 -158.5t36.5 -213t-38.5 -215t-109.5 -163.5t-171 -104.5t-223 -37q-96 0 -169 20.5t-131.5 55.5t-104.5 83t-87 103z" />
<glyph unicode="6" d="M57 457q0 154 48.5 264t136.5 215l389 457h287l-369 -451q43 6 84 6q102 0 185 -35.5t141.5 -98t90 -151t31.5 -192.5q0 -115 -34.5 -209t-101 -161.5t-161 -104.5t-211.5 -37t-212 37t-162.5 102.5t-104.5 156.5t-37 202zM313 471q0 -61 19.5 -113.5t53.5 -91.5 t81 -60.5t102 -21.5t102.5 21.5t81 59.5t53 91.5t19.5 114.5q0 125 -72.5 195.5t-183.5 70.5t-183.5 -71.5t-72.5 -194.5z" />
<glyph unicode="7" d="M78 1167l51 226h922v-226l-492 -1167h-287l512 1167h-706z" />
<glyph unicode="8" d="M66 420q0 72 19 130t50 104t70 80t78 54q-72 45 -114 119t-42 178q0 76 33 140.5t91 110.5t141 72t186 26q100 0 183 -26t142.5 -72t92 -110.5t32.5 -140.5q0 -104 -42 -176.5t-114 -120.5q39 -20 78 -54t70 -81t50.5 -106t19.5 -127q0 -104 -36 -189.5t-103.5 -145.5 t-162 -93t-210.5 -33q-117 0 -211.5 34t-162 95.5t-103 145t-35.5 186.5zM322 420q0 -109 68.5 -172.5t187.5 -63.5q117 0 186.5 59.5t69.5 176.5q0 49 -16.5 95t-49.5 82t-81 57.5t-109 21.5t-109.5 -20.5t-81.5 -55.5t-49 -82t-16 -98zM362 1044q0 -35 13.5 -67.5t40 -59 t67.5 -42t95 -15.5q53 0 94 15.5t67.5 42t40 59t13.5 67.5t-13.5 68t-40 59.5t-67.5 42t-94 15.5t-94.5 -15.5t-68 -42t-40 -59.5t-13.5 -68z" />
<glyph unicode="9" d="M72 922q0 115 34.5 209t101 161.5t161 104.5t211.5 37t212 -37t162.5 -102.5t104.5 -156.5t37 -202q0 -154 -48.5 -264.5t-136.5 -214.5l-389 -457h-286l368 451q-43 -6 -84 -7q-102 0 -185 36t-141.5 98.5t-90 150.5t-31.5 193zM328 922q0 -125 72.5 -196t183.5 -71 t183.5 72t72.5 195q0 61 -19.5 113t-53.5 91t-81 60.5t-102 21.5t-102.5 -21.5t-81 -59t-53 -91t-19.5 -114.5z" />
<glyph unicode=":" horiz-adv-x="593" d="M164 0v287h266v-287h-266zM164 573v287h266v-287h-266z" />
<glyph unicode=";" horiz-adv-x="593" d="M82 -225q47 47 64.5 105.5t17.5 119.5v287h266v-287q0 -109 -58.5 -195t-166.5 -133zM164 573v287h266v-287h-266z" />
<glyph unicode="&#x3c;" d="M96 543v164l963 501v-266l-666 -317l666 -318v-266z" />
<glyph unicode="=" d="M96 328v204h963v-204h-963zM96 717v205h963v-205h-963z" />
<glyph unicode="&#x3e;" d="M96 41v266l666 318l-666 317v266l963 -501v-164z" />
<glyph unicode="?" horiz-adv-x="1126" d="M61 1065q0 92 31 174t91.5 143.5t147.5 97.5t201 36q111 0 201 -27t154.5 -79t100.5 -128t36 -176q0 -88 -27.5 -146.5t-68.5 -102.5t-89 -80t-89 -78t-69 -98t-28 -138v-27q0 -12 2 -26h-266q-6 51 -6 100q0 102 26.5 171t65.5 118t85 84t85 66.5t65.5 67.5t26.5 89 q0 78 -53 121t-131 43q-84 0 -146.5 -51.5t-78.5 -174.5zM389 0v287h266v-287h-266z" />
<glyph unicode="@" horiz-adv-x="1740" d="M82 410q0 168 61.5 311t168 246.5t251 162t307.5 58.5q162 0 305.5 -51.5t251 -144.5t170 -226t62.5 -295q0 -115 -27.5 -200t-78 -140t-120 -83t-153.5 -28q-78 0 -138.5 28t-107.5 75q-47 -47 -110.5 -75t-155.5 -28q-70 0 -129 27t-103 76t-70 121.5t-26 165.5 q0 92 24.5 164.5t67.5 121.5t98.5 76t117.5 27q61 0 119.5 -20.5t105.5 -82.5v82h225v-409q0 -78 38 -111t85 -33t85 51.5t38 174.5t-44 223t-121 170.5t-181.5 109.5t-227.5 39q-115 0 -220 -45t-186 -124t-129 -185.5t-48 -228.5q0 -123 45 -228.5t124 -182.5t185.5 -120 t228.5 -43q57 0 105.5 4t91.5 16.5t84 32t88 50.5l246 -82q-123 -125 -273.5 -175.5t-341.5 -50.5q-170 0 -313 58.5t-249.5 162t-166 246t-59.5 312.5zM666 410q0 -94 43 -149.5t120 -55.5q61 0 102.5 48t41.5 157q0 88 -41 146t-103 58q-78 0 -120.5 -56t-42.5 -148z" />
<glyph unicode="A" horiz-adv-x="1310" d="M20 0l492 1475h287l491 -1475h-297l-98 328h-479l-99 -328h-297zM489 573h332l-164 574h-4z" />
<glyph unicode="B" horiz-adv-x="1187" d="M143 0v1475h451q92 0 174 -27t143.5 -76t97 -116.5t35.5 -149.5q0 -123 -53 -210t-131 -118q39 -16 82 -42.5t80 -69.5t60.5 -101.5t23.5 -134.5q0 -100 -36 -180t-99.5 -135.5t-149.5 -85t-186 -29.5h-492zM420 246h174q109 0 167 56.5t58 148.5t-58.5 148t-166.5 56 h-174v-409zM420 891h153q39 0 76 10t65.5 30.5t46 53.5t17.5 80q0 45 -17.5 79t-46 54.5t-65.5 30.5t-76 10h-153v-348z" />
<glyph unicode="C" horiz-adv-x="1435" d="M82 737q0 168 56.5 311.5t157.5 247t239.5 162t304.5 58.5q145 0 275 -56.5t220 -150.5l-147 -222q-70 78 -157 120t-191 42q-113 0 -202 -40t-151.5 -108.5t-95.5 -162.5t-33 -201q0 -109 35 -202t97.5 -161.5t151.5 -108.5t198 -40q115 0 196.5 39t151.5 123l166 -203 q-84 -111 -222.5 -168t-291.5 -57q-172 0 -312.5 58.5t-240 162t-152.5 245.5t-53 312z" />
<glyph unicode="D" horiz-adv-x="1413" d="M143 0v1475h451q131 0 262 -46.5t236.5 -138.5t172 -230.5t66.5 -322.5t-66.5 -322.5t-171 -230.5t-233.5 -138t-256 -46h-461zM420 256h112q92 0 183.5 28.5t165 89t118.5 150.5t45 213t-45 213t-118.5 150.5t-164.5 89.5t-184 29h-112v-963z" />
<glyph unicode="E" horiz-adv-x="1044" d="M143 0v1475h758l41 -267h-522v-327h461v-267h-461v-348h543l-41 -266h-779z" />
<glyph unicode="F" horiz-adv-x="1003" d="M143 0v1475h758l41 -267h-522v-327h461v-267h-461v-614h-277z" />
<glyph unicode="G" horiz-adv-x="1628" d="M82 737q0 166 58.5 308.5t158.5 247t234.5 164t285.5 59.5q125 0 223.5 -23t174 -61.5t132 -89t97.5 -107.5l-184 -184q-70 98 -173.5 148t-269.5 50q-104 0 -189 -41t-145.5 -111.5t-93.5 -162.5t-33 -197q0 -104 33 -196t93.5 -163t145.5 -112t189 -41q115 0 223.5 37 t186.5 125v227h-266l41 236h501v-537q-57 -76 -119.5 -140t-142.5 -112.5t-183.5 -75t-240.5 -26.5q-152 0 -286 59.5t-234 164t-158.5 246.5t-58.5 308z" />
<glyph unicode="H" horiz-adv-x="1443" d="M143 0v1475h277v-584h604v584h276v-1475h-276v625h-604v-625h-277z" />
<glyph unicode="I" horiz-adv-x="563" d="M143 0v1475h277v-1475h-277z" />
<glyph unicode="J" horiz-adv-x="768" d="M0 61l123 226q61 -61 123 -62q14 0 32.5 5.5t34 18.5t25.5 36.5t10 62.5v1127h277v-1184q0 -102 -30 -167t-78 -101.5t-108.5 -50t-121.5 -13.5q-98 0 -172 34t-115 68z" />
<glyph unicode="K" horiz-adv-x="1239" d="M143 0v1475h277v-584h4l416 584h327l-522 -717l563 -758h-348l-436 614h-4v-614h-277z" />
<glyph unicode="L" horiz-adv-x="901" d="M143 0v1475h277v-1209h481l-41 -266h-717z" />
<glyph unicode="M" horiz-adv-x="1761" d="M143 0v1475h277l461 -758l460 758h277v-1475h-277v983h-4l-456 -737l-457 737h-4v-983h-277z" />
<glyph unicode="N" horiz-adv-x="1495" d="M143 0v1475h267l661 -983h4v983h277v-1475h-267l-661 983h-4v-983h-277z" />
<glyph unicode="O" horiz-adv-x="1679" d="M82 737q0 172 58.5 315.5t160.5 247t240.5 160t298.5 56.5q158 0 296 -56.5t240.5 -160t161.5 -247t59 -315.5t-59 -315t-161.5 -246.5t-241 -160t-295.5 -56.5q-158 0 -296 56.5t-240.5 160t-162 246.5t-59.5 315zM358 737q0 -117 38 -212t103.5 -161.5t153.5 -102.5 t187 -36q98 0 186 36t153.5 102.5t103.5 161.5t38 212t-38 212t-103.5 162t-153.5 102.5t-186 35.5t-185.5 -35.5t-154 -102.5t-104.5 -162t-38 -212z" />
<glyph unicode="P" horiz-adv-x="1105" d="M143 0v1475h451q94 0 179 -33t149.5 -92.5t103.5 -142.5t39 -183t-39 -183t-104.5 -142.5t-150.5 -92.5t-177 -33h-174v-573h-277zM420 799h133q92 0 158.5 58t66.5 167t-66.5 167t-158.5 58h-133v-450z" />
<glyph unicode="Q" horiz-adv-x="1679" d="M82 737q0 172 58.5 315.5t160.5 247t240.5 160t298.5 56.5q158 0 296 -56.5t240.5 -160t161.5 -247t59 -315.5q0 -160 -50 -294t-142 -236l172 -207h-266l-62 74q-88 -55 -190.5 -85t-218.5 -30q-158 0 -296 56.5t-240.5 160t-162 246.5t-59.5 315zM358 737 q0 -117 38 -212t103.5 -161.5t153.5 -102.5t187 -36q129 0 235 60l-256 309h266l142 -172q45 61 69.5 140t24.5 175q0 117 -38 212t-103.5 162t-153.5 102.5t-186 35.5t-185.5 -35.5t-154 -102.5t-104.5 -162t-38 -212z" />
<glyph unicode="R" horiz-adv-x="1187" d="M143 0v1475h451q94 0 179 -30t149.5 -85t103.5 -135t39 -181q0 -84 -28.5 -152.5t-75 -120.5t-104.5 -87t-120 -49l430 -635h-348l-379 614h-20v-614h-277zM420 840h133q45 0 86 12t71.5 36.5t49 63.5t18.5 92q0 106 -66.5 155.5t-158.5 49.5h-133v-409z" />
<glyph unicode="S" horiz-adv-x="1075" d="M51 203l185 184q23 -31 50 -59.5t64 -51t84 -37t109 -14.5q78 0 136 46t58 139q0 70 -45 114.5t-113.5 81.5t-148.5 75t-148.5 92t-113.5 133t-45 200q0 96 33.5 173t91 129t133.5 80t162 28q139 0 235 -46.5t174 -138.5l-153 -184q-39 61 -108.5 92t-147.5 31 q-70 0 -112 -40t-42 -124q0 -70 46 -113t116 -77.5t150.5 -69.5t150.5 -89.5t116 -137t46 -209.5q0 -100 -34 -183.5t-95.5 -142.5t-148.5 -92t-193 -33q-90 0 -161 18.5t-129 50t-107.5 77t-94.5 98.5z" />
<glyph unicode="T" horiz-adv-x="952" d="M20 1208l31 267h850l31 -267h-318v-1208h-276v1208h-318z" />
<glyph unicode="U" horiz-adv-x="1433" d="M133 532v943h277v-943q0 -78 23.5 -136t64.5 -99t97 -61.5t122 -20.5t122 20.5t97 61.5t64.5 99.5t23.5 135.5v943h276v-943q0 -145 -45 -253.5t-123.5 -179t-185 -105.5t-229.5 -35t-229.5 35t-185.5 105.5t-124 179t-45 253.5z" />
<glyph unicode="V" horiz-adv-x="1269" d="M20 1475h297l316 -1045h4l315 1045h297l-471 -1475h-286z" />
<glyph unicode="W" horiz-adv-x="1925" d="M20 1475h297l275 -983h4l244 983h245l244 -983h4l275 983h297l-451 -1475h-246l-243 983h-4l-244 -983h-246z" />
<glyph unicode="X" horiz-adv-x="1228" d="M41 0l426 766l-385 709h287l245 -451l246 451h287l-385 -709l426 -766h-307l-267 512l-266 -512h-307z" />
<glyph unicode="Y" horiz-adv-x="1198" d="M0 1475h297l303 -697l301 697h297l-461 -1004v-471h-276v471z" />
<glyph unicode="Z" horiz-adv-x="1187" d="M41 0l655 1229h-594l62 246h983l-655 -1229h634l-61 -246h-1024z" />
<glyph unicode="[" horiz-adv-x="696" d="M164 -236v1864l409 21l21 -236h-164v-1433h164l-21 -236z" />
<glyph unicode="\" horiz-adv-x="860" d="M0 1597h225l635 -1802h-225z" />
<glyph unicode="]" horiz-adv-x="696" d="M102 -20h164v1433h-164l21 236l409 -21v-1864l-409 -20z" />
<glyph unicode="^" horiz-adv-x="1146" d="M0 655l451 820h245l451 -820h-328l-246 574l-245 -574h-328z" />
<glyph unicode="_" horiz-adv-x="983" d="M0 -143h983v-226h-983v226z" />
<glyph unicode="`" horiz-adv-x="573" d="M82 1311h266l144 -287h-185z" />
<glyph unicode="a" horiz-adv-x="1136" d="M72 430q0 106 31.5 192.5t86 145.5t124 91t147.5 32q92 0 166.5 -25.5t126.5 -87.5h4v82h256v-860h-256v82h-4q-51 -61 -126 -87t-167 -26q-78 0 -147.5 32t-124 91.5t-86 144.5t-31.5 193zM338 430q0 -53 17.5 -95t46 -70.5t65.5 -44t76 -15.5q92 0 153.5 58t61.5 167 t-61.5 167t-153.5 58q-39 0 -76 -15t-65.5 -44t-46 -71t-17.5 -95z" />
<glyph unicode="b" horiz-adv-x="1136" d="M123 0v1495h256v-717h4q51 61 126 87t167 26q76 0 146.5 -32t124.5 -91t86 -145.5t32 -192.5q0 -109 -32 -193.5t-86 -144t-124.5 -91.5t-146.5 -32q-92 0 -167 25.5t-126 87.5h-4v-82h-256zM379 430q0 -109 61.5 -167t153.5 -58q39 0 76 15.5t65.5 44t46 70.5t17.5 95 t-17.5 95t-46 71t-65.5 44t-76 15q-92 0 -153.5 -58t-61.5 -167z" />
<glyph unicode="c" horiz-adv-x="962" d="M72 430q0 100 32.5 184t94 145.5t148.5 96.5t196 35q123 0 205.5 -38t152.5 -116l-133 -164q-23 23 -45.5 42.5t-48 33t-57 20.5t-74.5 7q-92 0 -148.5 -68.5t-56.5 -177.5t59.5 -177.5t145.5 -68.5q78 0 128 31t97 92l164 -164q-92 -92 -179 -133t-210 -41 q-109 0 -196 35t-148.5 96.5t-94 145.5t-32.5 184z" />
<glyph unicode="d" horiz-adv-x="1136" d="M72 430q0 106 31.5 192.5t86 145.5t124 91t147.5 32q92 0 166.5 -25.5t126.5 -87.5h4v717h256v-1495h-256v82h-4q-51 -61 -126 -87t-167 -26q-78 0 -147.5 32t-124 91.5t-86 144.5t-31.5 193zM338 430q0 -53 17.5 -95t46 -70.5t65.5 -44t76 -15.5q92 0 153.5 58t61.5 167 t-61.5 167t-153.5 58q-39 0 -76 -15t-65.5 -44t-46 -71t-17.5 -95z" />
<glyph unicode="e" horiz-adv-x="1075" d="M72 430q0 100 32.5 184t94 145.5t148.5 96.5t196 35q100 0 185 -36t146.5 -96.5t95.5 -140t34 -167.5v-103h-666q16 -78 71.5 -131t133.5 -53t130 20.5t109 81.5l193 -100q-78 -109 -178.5 -153t-253.5 -44q-109 0 -196 35t-148.5 96.5t-94 145.5t-32.5 184zM338 512h410 q-8 31 -23.5 60.5t-40.5 52t-60.5 37t-80.5 14.5q-92 0 -141.5 -51.5t-63.5 -112.5z" />
<glyph unicode="f" horiz-adv-x="686" d="M41 635l31 225h112v266q0 186 99.5 278.5t275.5 92.5h27q14 0 28 -2v-225q-12 2 -23 3t-22 1q-78 0 -103.5 -43t-25.5 -105v-266h174v-225h-174v-635h-256v635h-143z" />
<glyph unicode="g" horiz-adv-x="1136" d="M72 430q0 106 31.5 192.5t86 145.5t124 91t147.5 32q92 0 166.5 -25.5t126.5 -87.5h4v82h256v-819q0 -246 -113 -358.5t-358 -112.5q-125 0 -233.5 32.5t-217.5 110.5l123 205q61 -47 140 -80t188 -33t162 63.5t53 172.5v41h-4q-51 -61 -126 -87t-167 -26 q-78 0 -147.5 32t-124 91.5t-86 144.5t-31.5 193zM338 430q0 -53 17.5 -95t46 -70.5t65.5 -44t76 -15.5q92 0 153.5 58t61.5 167t-61.5 167t-153.5 58q-39 0 -76 -15t-65.5 -44t-46 -71t-17.5 -95z" />
<glyph unicode="h" horiz-adv-x="1085" d="M123 0v1495h256v-717h4q51 61 124 87t152 26q152 0 233 -84t81 -254v-553h-256v471q0 92 -36 138t-128 46q-78 0 -126 -53t-48 -131v-471h-256z" />
<glyph unicode="i" horiz-adv-x="501" d="M123 0v860h256v-860h-256zM123 1024v287h256v-287h-256z" />
<glyph unicode="j" horiz-adv-x="501" d="M-31 -133q45 -25 90 -25q29 0 46.5 15.5t17.5 50.5v952h256v-1003q0 -154 -58.5 -220.5t-166.5 -66.5q-61 0 -107.5 14.5t-77.5 36.5v246zM123 1024v287h256v-287h-256z" />
<glyph unicode="k" horiz-adv-x="962" d="M123 0v1495h256v-942h4l231 307h308l-328 -409l369 -451h-308l-272 369h-4v-369h-256z" />
<glyph unicode="l" horiz-adv-x="501" d="M123 0v1495h256v-1495h-256z" />
<glyph unicode="m" horiz-adv-x="1597" d="M123 0v860h256v-82h4q51 61 119.5 87t152.5 26t139.5 -36t86.5 -97q76 76 145.5 104.5t161.5 28.5q70 0 124 -23.5t93 -63.5t59.5 -94.5t20.5 -115.5v-594h-256v492q0 78 -33 120.5t-111 42.5t-115.5 -47t-37.5 -116v-492h-256v492q0 78 -33 120.5t-111 42.5 q-31 0 -58.5 -14t-49 -36.5t-33.5 -52.5t-12 -60v-492h-256z" />
<glyph unicode="n" horiz-adv-x="1085" d="M123 0v860h256v-82h4q51 61 124 87t152 26q152 0 233 -84t81 -254v-553h-256v471q0 92 -36 138t-128 46q-78 0 -126 -53t-48 -131v-471h-256z" />
<glyph unicode="o" horiz-adv-x="1085" d="M72 430q0 100 32.5 184t94 145.5t148.5 96.5t196 35q106 0 193 -35t148.5 -96.5t95.5 -145.5t34 -184t-34 -184t-95.5 -145.5t-148.5 -96.5t-193 -35q-109 0 -196 35t-148.5 96.5t-94 145.5t-32.5 184zM328 432q0 -55 16 -100t45 -78t68 -51.5t86 -18.5q45 0 85 18.5 t68.5 51.5t45 78t16.5 98t-16.5 98t-45 78t-68.5 51.5t-85 18.5q-92 0 -153.5 -68.5t-61.5 -175.5z" />
<glyph unicode="p" horiz-adv-x="1136" d="M123 -389v1249h256v-82h4q51 61 126 87t167 26q76 0 146.5 -32t124.5 -91t86 -145.5t32 -192.5q0 -109 -32 -193.5t-86 -144t-124.5 -91.5t-146.5 -32q-92 0 -167 25.5t-126 87.5h-4v-471h-256zM379 430q0 -109 61.5 -167t153.5 -58q39 0 76 15.5t65.5 44t46 70.5 t17.5 95t-17.5 95t-46 71t-65.5 44t-76 15q-92 0 -153.5 -58t-61.5 -167z" />
<glyph unicode="q" horiz-adv-x="1136" d="M72 430q0 106 31.5 192.5t86 145.5t124 91t147.5 32q92 0 166.5 -25.5t126.5 -87.5h4v82h256v-1249h-256v471h-4q-51 -61 -126 -87t-167 -26q-78 0 -147.5 32t-124 91.5t-86 144.5t-31.5 193zM338 430q0 -53 17.5 -95t46 -70.5t65.5 -44t76 -15.5q92 0 153.5 58t61.5 167 t-61.5 167t-153.5 58q-39 0 -76 -15t-65.5 -44t-46 -71t-17.5 -95z" />
<glyph unicode="r" horiz-adv-x="696" d="M123 0v860h256v-102h4q25 39 50.5 64.5t57 41t71.5 21.5t93 6v-236q-14 2 -27.5 3t-25.5 1q-111 0 -167 -54t-56 -144v-461h-256z" />
<glyph unicode="s" horiz-adv-x="851" d="M72 109l110 165q20 -20 47 -40.5t56.5 -36t59.5 -24.5t58 -9q111 0 111 74q0 37 -29.5 59t-74.5 41.5t-96.5 40t-96.5 54.5t-74.5 84t-29.5 128q0 61 24.5 107.5t67.5 77t99 46t118 15.5q111 0 186.5 -22.5t145.5 -77.5l-111 -148q-41 29 -94 46.5t-109 17.5 q-35 0 -63.5 -11.5t-28.5 -52.5q0 -29 32 -47t78 -37.5t101 -42t101.5 -58.5t78 -89t31.5 -131t-28.5 -130.5t-79 -83t-117 -43t-142.5 -12.5q-111 0 -191.5 43t-139.5 97z" />
<glyph unicode="t" horiz-adv-x="716" d="M41 635l31 225h112v287l256 41v-328h174v-225h-174v-328q0 -45 20.5 -68.5t53.5 -23.5q49 0 100 51v-225q-31 -31 -84 -51.5t-100 -20.5q-53 0 -98 14.5t-78 45t-51.5 79t-18.5 117.5v410h-143z" />
<glyph unicode="u" horiz-adv-x="1085" d="M113 307v553h256v-471q0 -92 35.5 -138t127.5 -46q78 0 126.5 53t48.5 131v471h256v-860h-256v82h-5q-51 -61 -123.5 -87t-152.5 -26q-152 0 -232.5 84t-80.5 254z" />
<glyph unicode="v" horiz-adv-x="880" d="M0 860h266l172 -563h4l172 563h267l-308 -860h-266z" />
<glyph unicode="w" horiz-adv-x="1331" d="M0 860h266l142 -532h4l161 532h185l162 -532h4l141 532h266l-266 -860h-246l-151 522h-4l-152 -522h-246z" />
<glyph unicode="x" horiz-adv-x="921" d="M41 0l283 438l-263 422h267l133 -207l133 207h266l-262 -422l283 -438h-287l-133 215l-133 -215h-287z" />
<glyph unicode="y" horiz-adv-x="901" d="M0 860h266l183 -450h4l182 450h266l-512 -1249h-266l205 491z" />
<glyph unicode="z" horiz-adv-x="921" d="M41 0l369 635h-328l61 225h697l-369 -635h369l-62 -225h-737z" />
<glyph unicode="{" horiz-adv-x="737" d="M41 584v225h82q31 0 56.5 20.5t25.5 81.5v410q0 170 81 249t246 79h144l20 -226h-123q-47 0 -74.5 -30.5t-27.5 -92.5v-440q0 -61 -17.5 -104t-64.5 -60q47 -16 64.5 -59t17.5 -105v-440q0 -61 27.5 -92t74.5 -31h123l-20 -225h-144q-166 0 -246.5 79t-80.5 249v409 q0 61 -25.5 82t-56.5 21h-82z" />
<glyph unicode="|" horiz-adv-x="860" d="M328 -205v1802h204v-1802h-204z" />
<glyph unicode="}" horiz-adv-x="737" d="M41 -31h123q47 0 74.5 31t27.5 92v440q0 61 17.5 104.5t64.5 59.5q-47 16 -64.5 59.5t-17.5 104.5v440q0 61 -27.5 92t-74.5 31h-123l20 226h144q166 0 246.5 -79t80.5 -249v-410q0 -61 26 -81.5t56 -20.5h82v-225h-82q-31 0 -56.5 -20.5t-25.5 -82.5v-409 q0 -170 -80.5 -249t-246.5 -79h-144z" />
<glyph unicode="~" horiz-adv-x="1171" d="M82 479v27q0 170 77 252t191 82q84 0 144.5 -26t108.5 -56.5t89 -56t88 -25.5t75 25.5t28 117.5h204q2 -16 3 -33v-30q0 -166 -71 -246t-198 -80q-84 0 -144.5 25.5t-108.5 56.5t-90 56.5t-87 25.5q-20 0 -38.5 -5t-33 -20.5t-22.5 -44t-8 -73.5h-205q-2 16 -2 28z" />
<glyph unicode="&#xa1;" horiz-adv-x="552" d="M143 -389v1065h267v-1065h-267zM143 799v286h267v-286h-267z" />
<glyph unicode="&#xa2;" horiz-adv-x="917" d="M72 434q0 94 28.5 173t79.5 137.5t122 95.5t157 49v143h147v-141q86 -10 153.5 -44t127.5 -91l-133 -162q-41 39 -74 60.5t-74 31.5v-504q41 10 72 33t65 57l144 -153q-106 -119 -281 -144v-159h-147v161q-84 12 -156 49t-123 95.5t-79.5 137.5t-28.5 175zM322 434 q0 -90 35.5 -153.5t101.5 -90.5v486q-66 -27 -101.5 -90.5t-35.5 -151.5z" />
<glyph unicode="&#xa3;" horiz-adv-x="1044" d="M102 0v225q45 39 77 87t51.5 116t27.5 158t8 213h-143l41 164h102v143q0 160 89 244t259 84q123 0 212 -53.5t137 -131.5l-123 -123q-41 53 -87 78t-89 25q-55 0 -93.5 -35t-38.5 -88v-143h226l-41 -164h-185q0 -117 -6 -205t-19 -152.5t-33.5 -111.5t-51.5 -84h541 l-41 -246h-820z" />
<glyph unicode="&#xa4;" horiz-adv-x="1126" d="M-2 219l156 154q-35 55 -53.5 118.5t-18.5 133.5t18.5 133t53.5 119l-156 153l160 160l153 -156q55 35 119 53.5t133 18.5q70 0 133.5 -18.5t118.5 -53.5l154 156l159 -160l-155 -153q35 -55 53 -119t18 -133q0 -70 -18 -133.5t-53 -118.5l155 -154l-159 -160l-154 156 q-55 -35 -118.5 -53.5t-133.5 -18.5t-133 18.5t-119 53.5l-153 -156zM285 625q0 -57 21.5 -108.5t59 -89.5t89 -59.5t108.5 -21.5t108.5 21.5t89.5 59.5t59.5 89.5t21.5 108.5t-21.5 108t-59.5 89t-89 59.5t-109 21.5q-57 0 -108.5 -21.5t-89 -59.5t-59 -89t-21.5 -108z" />
<glyph unicode="&#xa5;" horiz-adv-x="1351" d="M82 1393h307l287 -656l287 656h307l-260 -533h219v-164h-299l-80 -164h379v-163h-420v-369h-266v369h-420v163h379l-80 164h-299v164h219z" />
<glyph unicode="&#xa6;" horiz-adv-x="634" d="M205 0v614h225v-614h-225zM205 778v615h225v-615h-225z" />
<glyph unicode="&#xa7;" horiz-adv-x="1105" d="M61 717q0 53 15.5 100t42 87t58.5 74t67 58q-35 37 -57.5 100.5t-22.5 153.5q0 76 28.5 140.5t81 110.5t124 71.5t155.5 25.5q61 0 117.5 -14t104.5 -36.5t86 -52.5t61 -60l-144 -185q-47 61 -95 92t-110 31q-61 0 -102 -30.5t-41 -92.5q0 -55 47 -91t118 -66.5 t152.5 -65.5t152.5 -91t118 -142.5t47 -219.5q0 -100 -51 -179t-117 -130q39 -47 62.5 -110.5t23.5 -153.5q0 -78 -32.5 -141.5t-88 -109.5t-130.5 -71.5t-159 -25.5q-78 0 -139 14t-113.5 39t-95.5 58.5t-82 72.5l144 205q61 -61 133 -102t133 -41q84 0 124 21.5t40 80.5 q0 55 -48 91t-122 66.5t-158 65.5t-157.5 91.5t-122 142.5t-48.5 219zM328 717q0 -57 31.5 -95t82 -66t115 -52.5t129.5 -52.5q37 27 75 70.5t38 92.5q0 57 -31 95.5t-82 68t-114.5 53t-127.5 54.5q-37 -27 -76.5 -72t-39.5 -96z" />
<glyph unicode="&#xa8;" horiz-adv-x="819" d="M82 1024v266h246v-266h-246zM492 1024v266h245v-266h-245z" />
<glyph unicode="&#xa9;" horiz-adv-x="1720" d="M82 737q0 162 61.5 303.5t167 247t246.5 167t303 61.5t303.5 -61.5t247 -167t166.5 -247t61 -303.5t-61 -303t-166.5 -246.5t-247 -167t-303.5 -61.5t-303 61.5t-246.5 167t-167 246.5t-61.5 303zM246 737q0 -127 48 -239.5t131 -195.5t195.5 -131t239.5 -48t239.5 48 t195.5 131t131.5 195.5t48.5 239.5t-48.5 240t-131.5 195.5t-195.5 131t-239.5 48.5t-239.5 -48.5t-195.5 -131t-131 -195.5t-48 -240zM406 737q0 100 33.5 187.5t95 152t146.5 102.5t185 38q117 0 206 -45.5t147 -120.5l-129 -148q-49 55 -100.5 83t-121.5 28 q-49 0 -94 -19.5t-80 -56.5t-56.5 -88t-21.5 -113q0 -61 20.5 -112.5t55.5 -88t80 -56t94 -19.5q70 0 121 27.5t100 82.5l130 -147q-53 -76 -142.5 -121t-206.5 -45q-100 0 -185 38t-146.5 102.5t-96 151.5t-34.5 187z" />
<glyph unicode="&#xaa;" horiz-adv-x="749" d="M61 1116q0 74 24 129t60.5 92t79.5 56.5t82 19.5q53 0 102.5 -17.5t71.5 -64.5v62h174v-553h-174v61q-23 -47 -72 -64.5t-102 -17.5q-39 0 -82 19.5t-79.5 56.5t-60.5 92t-24 129zM82 512v184h573v-184h-573zM256 1116q0 -72 33 -102.5t80 -30.5t79.5 31.5t32.5 101.5 t-32.5 101.5t-79.5 31.5t-80 -32.5t-33 -100.5z" />
<glyph unicode="&#xab;" horiz-adv-x="829" d="M31 471l266 266l123 -123l-144 -143l144 -143l-123 -123zM379 471l266 266l123 -123l-143 -143l143 -143l-123 -123z" />
<glyph unicode="&#xac;" d="M96 512v225h963v-491h-225v266h-738z" />
<glyph unicode="&#xad;" horiz-adv-x="655" d="M82 389v225h491v-225h-491z" />
<glyph unicode="&#xae;" horiz-adv-x="1146" d="M82 1024q0 102 39 191.5t105.5 156t155.5 105.5t191 39t191.5 -39t156 -105.5t105.5 -156t39 -191.5t-39 -191.5t-105.5 -156t-155.5 -105.5t-192 -39q-102 0 -191 39t-155.5 105.5t-105.5 156t-39 191.5zM205 1024q0 -76 28.5 -143.5t78.5 -117.5t118 -79t143 -29 q76 0 143.5 29t118 79t79 117.5t28.5 143.5t-28.5 143.5t-79 117.5t-118 79t-143.5 29t-143.5 -29t-117.5 -79t-78.5 -117.5t-28.5 -143.5zM389 778v512h184q92 0 148.5 -43t56.5 -121q0 -61 -27.5 -96t-74.5 -57l102 -195h-143l-82 185h-41v-185h-123zM512 1065h61 q47 0 64.5 13t17.5 48q0 31 -17 46.5t-65 15.5h-61v-123z" />
<glyph unicode="&#xaf;" horiz-adv-x="983" d="M82 1024v184h819v-184h-819z" />
<glyph unicode="&#xb0;" horiz-adv-x="675" d="M82 1219q0 53 20.5 99t55.5 81t81 55.5t99 20.5t99 -20.5t81 -55.5t55.5 -81t20.5 -99t-20.5 -99.5t-55.5 -81t-81 -55t-99 -20.5t-99 20.5t-81 55t-55.5 80.5t-20.5 100zM225 1219q0 -47 33 -80t80 -33t80 33t33 80t-33 79.5t-80 32.5t-80 -32.5t-33 -79.5z" />
<glyph unicode="&#xb1;" d="M96 0v225h963v-225h-963zM96 655v226h369v368h225v-368h369v-226h-369v-368h-225v368h-369z" />
<glyph unicode="&#xb2;" horiz-adv-x="874" d="M115 1241q16 129 103 202t216 73q154 0 232.5 -76t78.5 -189q0 -68 -29.5 -116t-75.5 -84.5t-98.5 -65.5t-98.5 -56.5t-75.5 -59t-29.5 -72.5h412l-27 -162h-602v104q0 84 31.5 141.5t79 99.5t102.5 73.5t102 60.5t79 60.5t32 76.5q0 41 -30 73t-89 32q-113 0 -131 -144z " />
<glyph unicode="&#xb3;" horiz-adv-x="874" d="M96 825l168 56q27 -68 68 -95.5t88 -27.5q57 0 95 32.5t38 98.5t-41 98.5t-102 32.5h-41v137h41q121 0 120 105q0 41 -32.5 67.5t-79.5 26.5q-55 0 -84 -33t-45 -74l-156 37q8 45 30.5 87t59.5 74t86 50.5t111 18.5q143 0 223 -61.5t80 -166.5q0 -68 -34 -114t-83 -70 q61 -25 105.5 -78t44.5 -143q0 -68 -25.5 -121t-70 -90t-106.5 -57.5t-136 -20.5q-133 0 -212 66.5t-110 164.5z" />
<glyph unicode="&#xb4;" horiz-adv-x="573" d="M82 1024l143 287h267l-226 -287h-184z" />
<glyph unicode="&#xb5;" horiz-adv-x="1095" d="M123 -410v1270h256v-471q0 -92 36 -138t128 -46q78 0 126 53t48 131v471h256v-860h-256v82q-53 -53 -103.5 -67.5t-111.5 -14.5q-31 0 -69 12.5t-54 28.5v-451h-256z" />
<glyph unicode="&#xb6;" horiz-adv-x="1351" d="M41 1106q0 76 28.5 143.5t79 117.5t117 79t144.5 29h819v-1475h-246v1270h-184v-1270h-246v737h-143q-76 0 -143.5 29t-118 79t-79 116.5t-28.5 144.5z" />
<glyph unicode="&#xb7;" horiz-adv-x="593" d="M164 369v286h266v-286h-266z" />
<glyph unicode="&#xb8;" horiz-adv-x="368" d="M20 -430q33 23 59.5 82t26.5 125q0 29 -5 53.5t-19 46.5h205q27 -53 26 -106q0 -43 -16 -83t-43 -74t-61.5 -60.5t-69.5 -45.5z" />
<glyph unicode="&#xb9;" horiz-adv-x="669" d="M115 1122v215l174 138h194v-840h-202v625z" />
<glyph unicode="&#xba;" horiz-adv-x="749" d="M61 1116q0 131 83 214t225 83q141 0 224 -83t83 -214t-84 -214t-223 -83t-223.5 83t-84.5 214zM82 512v184h573v-184h-573zM256 1116q0 -72 33 -102.5t80 -30.5t79.5 32.5t32.5 102.5t-32.5 100.5t-79.5 30.5t-80 -32.5t-33 -100.5z" />
<glyph unicode="&#xbb;" horiz-adv-x="829" d="M61 328l144 143l-144 143l123 123l267 -266l-267 -266zM410 328l143 143l-143 143l122 123l267 -266l-267 -266z" />
<glyph unicode="&#xbc;" horiz-adv-x="1714" d="M86 1122v215l174 138h195v-840h-203v625zM297 0l840 1393h225l-840 -1393h-225zM887 246l403 678h209v-529h117v-149h-117v-162h-205v162h-407zM1112 395h182v310z" />
<glyph unicode="&#xbd;" horiz-adv-x="1828" d="M86 1122v215l174 138h195v-840h-203v625zM297 0l840 1393h225l-840 -1393h-225zM1065 690q16 129 103 202t216 73q154 0 233 -76t79 -189q0 -68 -30 -115.5t-76 -84.5t-98 -65.5t-98 -56.5t-76 -59.5t-30 -72.5h412l-27 -162h-602v104q0 84 32 141.5t79 99.5t102 74 t102.5 60.5t79 60t31.5 76.5q0 41 -29.5 73t-89.5 32q-113 0 -131 -143z" />
<glyph unicode="&#xbe;" horiz-adv-x="1894" d="M76 825l168 56q27 -68 67.5 -95.5t87.5 -27.5q57 0 95 32.5t38 98.5t-40.5 98.5t-102.5 32.5h-41v137h41q121 0 121 105q0 41 -33 67.5t-80 26.5q-55 0 -83.5 -33t-45.5 -74l-155 37q8 45 30.5 87t59.5 74t86 50.5t110 18.5q143 0 223 -61.5t80 -166.5q0 -68 -33.5 -114 t-82.5 -70q61 -25 105 -78t44 -143q0 -68 -25.5 -121t-69.5 -90t-106.5 -57.5t-136.5 -20.5q-133 0 -212 66.5t-109 164.5zM477 0l840 1393h225l-840 -1393h-225zM1067 246l403 678h209v-529h117v-149h-117v-162h-204v162h-408zM1292 395h183v310z" />
<glyph unicode="&#xbf;" horiz-adv-x="1126" d="M102 -20q0 88 28 146t69 102t89 80t89 78t68.5 97.5t27.5 139.5v24q0 14 -2 29h266q6 -53 6 -101q0 -102 -26.5 -170.5t-65.5 -117.5t-85 -84t-85 -67t-65.5 -68.5t-26.5 -87.5q0 -78 53.5 -121t130.5 -43q84 0 146.5 51t79.5 174l266 -21q0 -92 -30.5 -174t-91 -143 t-148.5 -97t-201 -36q-111 0 -202 26.5t-155.5 79t-99.5 128t-35 176.5zM471 799v286h266v-286h-266z" />
<glyph unicode="&#xc0;" horiz-adv-x="1310" d="M20 0l492 1475h287l491 -1475h-297l-98 328h-479l-99 -328h-297zM338 1884h266l144 -287h-185zM489 573h332l-164 574h-4z" />
<glyph unicode="&#xc1;" horiz-adv-x="1310" d="M20 0l492 1475h287l491 -1475h-297l-98 328h-479l-99 -328h-297zM489 573h332l-164 574h-4zM563 1597l144 287h266l-225 -287h-185z" />
<glyph unicode="&#xc2;" horiz-adv-x="1310" d="M20 0l492 1475h287l491 -1475h-297l-98 328h-479l-99 -328h-297zM348 1597l205 287h205l205 -287h-226l-82 164l-82 -164h-225zM489 573h332l-164 574h-4z" />
<glyph unicode="&#xc3;" horiz-adv-x="1310" d="M20 0l492 1475h287l491 -1475h-297l-98 328h-479l-99 -328h-297zM317 1597v62q0 109 37 157t127 48q49 0 92 -16.5t83 -35t77 -35t76 -16.5q23 0 32 17.5t9 64.5h143v-61q0 -109 -39 -157t-125 -48q-49 0 -92 16.5t-83 35t-76.5 34.5t-75.5 16q-23 0 -32 -17t-9 -65h-144 zM489 573h332l-164 574h-4z" />
<glyph unicode="&#xc4;" horiz-adv-x="1310" d="M20 0l492 1475h287l491 -1475h-297l-98 328h-479l-99 -328h-297zM328 1597v267h245v-267h-245zM489 573h332l-164 574h-4zM737 1597v267h246v-267h-246z" />
<glyph unicode="&#xc5;" horiz-adv-x="1310" d="M20 0l492 1475h287l491 -1475h-297l-98 328h-479l-99 -328h-297zM461 1751q0 39 15.5 75t42 62.5t61 42t75.5 15.5q39 0 75 -15.5t62.5 -42t42 -62.5t15.5 -75q0 -41 -15.5 -76t-42 -61.5t-62.5 -42t-75 -15.5q-41 0 -75.5 15.5t-61 42t-42 61.5t-15.5 76zM489 573h332 l-164 574h-4zM573 1751q0 -35 24 -58.5t58 -23.5q35 0 58.5 23.5t23.5 58.5t-23.5 58.5t-58.5 23.5t-58.5 -23.5t-23.5 -58.5z" />
<glyph unicode="&#xc6;" horiz-adv-x="1730" d="M0 0l717 1475h870l41 -267h-522v-327h461v-267h-461v-348h543l-41 -266h-779v317h-372l-150 -317h-307zM578 573h251v533h-4z" />
<glyph unicode="&#xc7;" horiz-adv-x="1435" d="M82 737q0 168 56.5 311.5t157.5 247t239.5 162t304.5 58.5q145 0 275 -56.5t220 -150.5l-147 -222q-70 78 -157 120t-191 42q-113 0 -202 -40t-151.5 -108.5t-95.5 -162.5t-33 -201q0 -109 35 -202t97.5 -161.5t151.5 -108.5t198 -40q115 0 196.5 39t151.5 123l166 -203 q-84 -111 -222.5 -168t-291.5 -57q-172 0 -312.5 58.5t-240 162t-152.5 245.5t-53 312zM635 -430q33 23 59.5 82t26.5 125q0 29 -5 53.5t-20 46.5h205q27 -53 27 -106q0 -43 -16.5 -83t-43 -74t-61.5 -60.5t-70 -45.5z" />
<glyph unicode="&#xc8;" horiz-adv-x="1044" d="M143 0v1475h758l41 -267h-522v-327h461v-267h-461v-348h543l-41 -266h-779zM246 1884h266l143 -287h-184z" />
<glyph unicode="&#xc9;" horiz-adv-x="1044" d="M143 0v1475h758l41 -267h-522v-327h461v-267h-461v-348h543l-41 -266h-779zM369 1597l143 287h266l-225 -287h-184z" />
<glyph unicode="&#xca;" horiz-adv-x="1044" d="M143 0v1475h758l41 -267h-522v-327h461v-267h-461v-348h543l-41 -266h-779zM225 1597l205 287h205l205 -287h-226l-82 164l-81 -164h-226z" />
<glyph unicode="&#xcb;" horiz-adv-x="1044" d="M143 0v1475h758l41 -267h-522v-327h461v-267h-461v-348h543l-41 -266h-779zM205 1597v267h246v-267h-246zM614 1597v267h246v-267h-246z" />
<glyph unicode="&#xcc;" horiz-adv-x="563" d="M-31 1884h267l143 -287h-184zM143 0v1475h277v-1475h-277z" />
<glyph unicode="&#xcd;" horiz-adv-x="563" d="M143 0v1475h277v-1475h-277zM184 1597l144 287h266l-225 -287h-185z" />
<glyph unicode="&#xce;" horiz-adv-x="563" d="M-25 1597l205 287h205l205 -287h-225l-82 164l-82 -164h-226zM143 0v1475h277v-1475h-277z" />
<glyph unicode="&#xcf;" horiz-adv-x="563" d="M-45 1597v267h246v-267h-246zM143 0v1475h277v-1475h-277zM365 1597v267h245v-267h-245z" />
<glyph unicode="&#xd0;" horiz-adv-x="1413" d="M0 655l41 205h102v615h451q131 0 262 -46.5t236.5 -138.5t172 -230.5t66.5 -322.5t-69.5 -322.5t-176 -230.5t-235.5 -138t-246 -46h-461v655h-143zM420 246h112q92 0 183.5 30.5t165 92t118.5 153.5t45 215t-45 215t-118.5 153.5t-164.5 92.5t-184 31h-112v-369h276 l-41 -205h-235v-409z" />
<glyph unicode="&#xd1;" horiz-adv-x="1495" d="M143 0v1475h267l661 -983h4v983h277v-1475h-267l-661 983h-4v-983h-277zM410 1597v62q0 109 36.5 157t126.5 48q49 0 92.5 -16.5t83 -35t76.5 -35t76 -16.5q23 0 32 17.5t9 64.5h143v-61q0 -109 -38.5 -157t-124.5 -48q-49 0 -92.5 16.5t-83 35t-76.5 34.5t-76 16 q-23 0 -32 -17t-9 -65h-143z" />
<glyph unicode="&#xd2;" horiz-adv-x="1679" d="M82 737q0 172 58.5 315.5t160.5 247t240.5 160t298.5 56.5q158 0 296 -56.5t240.5 -160t161.5 -247t59 -315.5t-59 -315t-161.5 -246.5t-241 -160t-295.5 -56.5q-158 0 -296 56.5t-240.5 160t-162 246.5t-59.5 315zM358 737q0 -117 38 -212t103.5 -161.5t153.5 -102.5 t187 -36q98 0 186 36t153.5 102.5t103.5 161.5t38 212t-38 212t-103.5 162t-153.5 102.5t-186 35.5t-185.5 -35.5t-154 -102.5t-104.5 -162t-38 -212zM532 1884h267l143 -287h-184z" />
<glyph unicode="&#xd3;" horiz-adv-x="1679" d="M82 737q0 172 58.5 315.5t160.5 247t240.5 160t298.5 56.5q158 0 296 -56.5t240.5 -160t161.5 -247t59 -315.5t-59 -315t-161.5 -246.5t-241 -160t-295.5 -56.5q-158 0 -296 56.5t-240.5 160t-162 246.5t-59.5 315zM358 737q0 -117 38 -212t103.5 -161.5t153.5 -102.5 t187 -36q98 0 186 36t153.5 102.5t103.5 161.5t38 212t-38 212t-103.5 162t-153.5 102.5t-186 35.5t-185.5 -35.5t-154 -102.5t-104.5 -162t-38 -212zM737 1597l144 287h266l-225 -287h-185z" />
<glyph unicode="&#xd4;" horiz-adv-x="1679" d="M82 737q0 172 58.5 315.5t160.5 247t240.5 160t298.5 56.5q158 0 296 -56.5t240.5 -160t161.5 -247t59 -315.5t-59 -315t-161.5 -246.5t-241 -160t-295.5 -56.5q-158 0 -296 56.5t-240.5 160t-162 246.5t-59.5 315zM358 737q0 -117 38 -212t103.5 -161.5t153.5 -102.5 t187 -36q98 0 186 36t153.5 102.5t103.5 161.5t38 212t-38 212t-103.5 162t-153.5 102.5t-186 35.5t-185.5 -35.5t-154 -102.5t-104.5 -162t-38 -212zM532 1597l205 287h205l205 -287h-225l-82 164l-82 -164h-226z" />
<glyph unicode="&#xd5;" horiz-adv-x="1679" d="M82 737q0 172 58.5 315.5t160.5 247t240.5 160t298.5 56.5q158 0 296 -56.5t240.5 -160t161.5 -247t59 -315.5t-59 -315t-161.5 -246.5t-241 -160t-295.5 -56.5q-158 0 -296 56.5t-240.5 160t-162 246.5t-59.5 315zM358 737q0 -117 38 -212t103.5 -161.5t153.5 -102.5 t187 -36q98 0 186 36t153.5 102.5t103.5 161.5t38 212t-38 212t-103.5 162t-153.5 102.5t-186 35.5t-185.5 -35.5t-154 -102.5t-104.5 -162t-38 -212zM502 1597v62q0 109 36.5 157t127.5 48q49 0 92 -16.5t83 -35t76.5 -35t75.5 -16.5q23 0 32 17.5t9 64.5h144v-61 q0 -109 -39 -157t-125 -48q-49 0 -92 16.5t-83 35t-77 34.5t-76 16q-23 0 -32 -17t-9 -65h-143z" />
<glyph unicode="&#xd6;" horiz-adv-x="1679" d="M82 737q0 172 58.5 315.5t160.5 247t240.5 160t298.5 56.5q158 0 296 -56.5t240.5 -160t161.5 -247t59 -315.5t-59 -315t-161.5 -246.5t-241 -160t-295.5 -56.5q-158 0 -296 56.5t-240.5 160t-162 246.5t-59.5 315zM358 737q0 -117 38 -212t103.5 -161.5t153.5 -102.5 t187 -36q98 0 186 36t153.5 102.5t103.5 161.5t38 212t-38 212t-103.5 162t-153.5 102.5t-186 35.5t-185.5 -35.5t-154 -102.5t-104.5 -162t-38 -212zM512 1597v267h246v-267h-246zM922 1597v267h245v-267h-245z" />
<glyph unicode="&#xd7;" d="M143 346l289 289l-289 289l146 145l289 -289l288 289l146 -145l-289 -289l289 -289l-146 -145l-288 288l-289 -288z" />
<glyph unicode="&#xd8;" horiz-adv-x="1679" d="M82 82l158 164q-74 98 -116 221t-42 270q0 172 58.5 315.5t160.5 247t240.5 160t298.5 56.5q135 0 257 -42t220 -120l158 162l122 -123l-157 -164q74 -98 115.5 -221.5t41.5 -270.5q0 -172 -59 -315t-161.5 -246.5t-241 -160t-295.5 -56.5q-135 0 -257 42t-221 120 l-157 -162zM358 737q0 -86 20.5 -158.5t57.5 -132.5l690 711q-59 45 -131.5 68.5t-154.5 23.5q-98 0 -185.5 -35.5t-154 -102.5t-104.5 -162t-38 -212zM553 317q59 -45 133 -68.5t154 -23.5q98 0 186 36t153.5 102.5t103.5 161.5t38 212q0 86 -20.5 159t-57.5 132z" />
<glyph unicode="&#xd9;" horiz-adv-x="1433" d="M133 532v943h277v-943q0 -78 23.5 -136t64.5 -99t97 -61.5t122 -20.5t122 20.5t97 61.5t64.5 99.5t23.5 135.5v943h276v-943q0 -145 -45 -253.5t-123.5 -179t-185 -105.5t-229.5 -35t-229.5 35t-185.5 105.5t-124 179t-45 253.5zM410 1884h266l143 -287h-184z" />
<glyph unicode="&#xda;" horiz-adv-x="1433" d="M133 532v943h277v-943q0 -78 23.5 -136t64.5 -99t97 -61.5t122 -20.5t122 20.5t97 61.5t64.5 99.5t23.5 135.5v943h276v-943q0 -145 -45 -253.5t-123.5 -179t-185 -105.5t-229.5 -35t-229.5 35t-185.5 105.5t-124 179t-45 253.5zM614 1597l144 287h266l-225 -287h-185z " />
<glyph unicode="&#xdb;" horiz-adv-x="1433" d="M133 532v943h277v-943q0 -78 23.5 -136t64.5 -99t97 -61.5t122 -20.5t122 20.5t97 61.5t64.5 99.5t23.5 135.5v943h276v-943q0 -145 -45 -253.5t-123.5 -179t-185 -105.5t-229.5 -35t-229.5 35t-185.5 105.5t-124 179t-45 253.5zM410 1597l204 287h205l205 -287h-225 l-82 164l-82 -164h-225z" />
<glyph unicode="&#xdc;" horiz-adv-x="1433" d="M133 532v943h277v-943q0 -78 23.5 -136t64.5 -99t97 -61.5t122 -20.5t122 20.5t97 61.5t64.5 99.5t23.5 135.5v943h276v-943q0 -145 -45 -253.5t-123.5 -179t-185 -105.5t-229.5 -35t-229.5 35t-185.5 105.5t-124 179t-45 253.5zM389 1597v267h246v-267h-246zM799 1597 v267h245v-267h-245z" />
<glyph unicode="&#xdd;" horiz-adv-x="1198" d="M0 1475h297l303 -697l301 697h297l-461 -1004v-471h-276v471zM471 1597l143 287h267l-226 -287h-184z" />
<glyph unicode="&#xde;" horiz-adv-x="1105" d="M164 0v1475h276v-267h174q94 0 179.5 -32.5t150 -92t103 -142.5t38.5 -183t-38.5 -183t-104 -142.5t-150.5 -92.5t-178 -33h-174v-307h-276zM440 532h133q92 0 159 58.5t67 167.5t-66.5 167t-159.5 58h-133v-451z" />
<glyph unicode="&#xdf;" horiz-adv-x="1146" d="M123 0v1065q0 104 30.5 185t87 135.5t133.5 82t169 27.5q100 0 176 -28.5t128 -74.5t78.5 -104.5t26.5 -120.5q0 -123 -43 -191.5t-121 -115.5q39 -8 88.5 -34.5t93.5 -75t74.5 -118t30.5 -161.5q0 -123 -37 -212t-101.5 -146.5t-155.5 -85t-197 -27.5h-82v225h61 q45 0 93.5 12.5t86 41t62 75.5t24.5 117q0 61 -21.5 110.5t-58 84t-85 53t-101.5 18.5h-61v226h61q61 0 102.5 43t41.5 120q0 61 -43 97.5t-121 36.5q-84 0 -124 -51.5t-40 -143.5v-1065h-256z" />
<glyph unicode="&#xe0;" horiz-adv-x="1136" d="M72 430q0 106 31.5 192.5t86 145.5t124 91t147.5 32q92 0 166.5 -25.5t126.5 -87.5h4v82h256v-860h-256v82h-4q-51 -61 -126 -87t-167 -26q-78 0 -147.5 32t-124 91.5t-86 144.5t-31.5 193zM266 1311h266l144 -287h-184zM338 430q0 -53 17.5 -95t46 -70.5t65.5 -44 t76 -15.5q92 0 153.5 58t61.5 167t-61.5 167t-153.5 58q-39 0 -76 -15t-65.5 -44t-46 -71t-17.5 -95z" />
<glyph unicode="&#xe1;" horiz-adv-x="1136" d="M72 430q0 106 31.5 192.5t86 145.5t124 91t147.5 32q92 0 166.5 -25.5t126.5 -87.5h4v82h256v-860h-256v82h-4q-51 -61 -126 -87t-167 -26q-78 0 -147.5 32t-124 91.5t-86 144.5t-31.5 193zM338 430q0 -53 17.5 -95t46 -70.5t65.5 -44t76 -15.5q92 0 153.5 58t61.5 167 t-61.5 167t-153.5 58q-39 0 -76 -15t-65.5 -44t-46 -71t-17.5 -95zM410 1024l143 287h266l-225 -287h-184z" />
<glyph unicode="&#xe2;" horiz-adv-x="1136" d="M72 430q0 106 31.5 192.5t86 145.5t124 91t147.5 32q92 0 166.5 -25.5t126.5 -87.5h4v82h256v-860h-256v82h-4q-51 -61 -126 -87t-167 -26q-78 0 -147.5 32t-124 91.5t-86 144.5t-31.5 193zM268 1024l205 287h205l205 -287h-226l-82 164l-81 -164h-226zM338 430 q0 -53 17.5 -95t46 -70.5t65.5 -44t76 -15.5q92 0 153.5 58t61.5 167t-61.5 167t-153.5 58q-39 0 -76 -15t-65.5 -44t-46 -71t-17.5 -95z" />
<glyph unicode="&#xe3;" horiz-adv-x="1136" d="M72 430q0 106 31.5 192.5t86 145.5t124 91t147.5 32q92 0 166.5 -25.5t126.5 -87.5h4v82h256v-860h-256v82h-4q-51 -61 -126 -87t-167 -26q-78 0 -147.5 32t-124 91.5t-86 144.5t-31.5 193zM238 1024v61q0 109 36.5 157t126.5 48q49 0 92.5 -16.5t83 -34.5t76.5 -34.5 t76 -16.5q23 0 32 17.5t9 64.5h143v-62q0 -109 -38.5 -156.5t-124.5 -47.5q-49 0 -92.5 16t-83 34.5t-76.5 35t-76 16.5q-23 0 -32 -17.5t-9 -64.5h-143zM338 430q0 -53 17.5 -95t46 -70.5t65.5 -44t76 -15.5q92 0 153.5 58t61.5 167t-61.5 167t-153.5 58q-39 0 -76 -15 t-65.5 -44t-46 -71t-17.5 -95z" />
<glyph unicode="&#xe4;" horiz-adv-x="1136" d="M72 430q0 106 31.5 192.5t86 145.5t124 91t147.5 32q92 0 166.5 -25.5t126.5 -87.5h4v82h256v-860h-256v82h-4q-51 -61 -126 -87t-167 -26q-78 0 -147.5 32t-124 91.5t-86 144.5t-31.5 193zM266 1024v266h246v-266h-246zM338 430q0 -53 17.5 -95t46 -70.5t65.5 -44 t76 -15.5q92 0 153.5 58t61.5 167t-61.5 167t-153.5 58q-39 0 -76 -15t-65.5 -44t-46 -71t-17.5 -95zM676 1024v266h246v-266h-246z" />
<glyph unicode="&#xe5;" horiz-adv-x="1136" d="M72 430q0 106 31.5 192.5t86 145.5t124 91t147.5 32q92 0 166.5 -25.5t126.5 -87.5h4v82h256v-860h-256v82h-4q-51 -61 -126 -87t-167 -26q-78 0 -147.5 32t-124 91.5t-86 144.5t-31.5 193zM338 430q0 -53 17.5 -95t46 -70.5t65.5 -44t76 -15.5q92 0 153.5 58t61.5 167 t-61.5 167t-153.5 58q-39 0 -76 -15t-65.5 -44t-46 -71t-17.5 -95zM369 1178q0 39 15 74.5t42 62t61.5 42t75.5 15.5q39 0 75 -15.5t62.5 -42t42 -62t15.5 -74.5q0 -41 -15.5 -76t-42 -61.5t-62.5 -42t-75 -15.5q-41 0 -75.5 15.5t-61.5 42t-42 61.5t-15 76zM481 1178 q0 -35 23.5 -58.5t58.5 -23.5t58.5 23.5t23.5 58.5t-23.5 58.5t-58.5 23.5t-58.5 -24t-23.5 -58z" />
<glyph unicode="&#xe6;" horiz-adv-x="1751" d="M72 430q0 106 31.5 192.5t86 145.5t124 91t147.5 32q92 0 166.5 -25.5t126.5 -87.5h4v82h278q82 31 183 31q100 0 185 -36t146.5 -96.5t95 -140t33.5 -167.5v-103h-665q16 -78 71.5 -131t133.5 -53t130 20.5t109 81.5l193 -100q-78 -109 -178.5 -153t-253.5 -44 q-100 0 -187 31h-274v82h-4q-51 -61 -126 -87t-167 -26q-78 0 -147.5 32t-124 91.5t-86 144.5t-31.5 193zM338 430q0 -53 17.5 -95t46 -70.5t65.5 -44t76 -15.5q92 0 153.5 58t61.5 167t-61.5 167t-153.5 58q-39 0 -76 -15t-65.5 -44t-46 -71t-17.5 -95zM1014 512h409 q-8 31 -23.5 60.5t-40 52t-60 37t-80.5 14.5q-92 0 -141.5 -51.5t-63.5 -112.5z" />
<glyph unicode="&#xe7;" horiz-adv-x="962" d="M72 430q0 100 32.5 184t94 145.5t148.5 96.5t196 35q123 0 205.5 -38t152.5 -116l-133 -164q-23 23 -45.5 42.5t-48 33t-57 20.5t-74.5 7q-92 0 -148.5 -68.5t-56.5 -177.5t59.5 -177.5t145.5 -68.5q78 0 128 31t97 92l164 -164q-92 -92 -179 -133t-210 -41 q-109 0 -196 35t-148.5 96.5t-94 145.5t-32.5 184zM369 -420q33 23 59.5 82t26.5 125q0 29 -5.5 53.5t-19.5 46.5h205q27 -53 27 -106q0 -43 -16.5 -83t-43.5 -74t-61.5 -60.5t-69.5 -44.5z" />
<glyph unicode="&#xe8;" horiz-adv-x="1075" d="M72 430q0 100 32.5 184t94 145.5t148.5 96.5t196 35q100 0 185 -36t146.5 -96.5t95.5 -140t34 -167.5v-103h-666q16 -78 71.5 -131t133.5 -53t130 20.5t109 81.5l193 -100q-78 -109 -178.5 -153t-253.5 -44q-109 0 -196 35t-148.5 96.5t-94 145.5t-32.5 184zM246 1311 h266l143 -287h-184zM338 512h410q-8 31 -23.5 60.5t-40.5 52t-60.5 37t-80.5 14.5q-92 0 -141.5 -51.5t-63.5 -112.5z" />
<glyph unicode="&#xe9;" horiz-adv-x="1075" d="M72 430q0 100 32.5 184t94 145.5t148.5 96.5t196 35q100 0 185 -36t146.5 -96.5t95.5 -140t34 -167.5v-103h-666q16 -78 71.5 -131t133.5 -53t130 20.5t109 81.5l193 -100q-78 -109 -178.5 -153t-253.5 -44q-109 0 -196 35t-148.5 96.5t-94 145.5t-32.5 184zM338 512h410 q-8 31 -23.5 60.5t-40.5 52t-60.5 37t-80.5 14.5q-92 0 -141.5 -51.5t-63.5 -112.5zM410 1024l143 287h266l-225 -287h-184z" />
<glyph unicode="&#xea;" horiz-adv-x="1075" d="M72 430q0 100 32.5 184t94 145.5t148.5 96.5t196 35q100 0 185 -36t146.5 -96.5t95.5 -140t34 -167.5v-103h-666q16 -78 71.5 -131t133.5 -53t130 20.5t109 81.5l193 -100q-78 -109 -178.5 -153t-253.5 -44q-109 0 -196 35t-148.5 96.5t-94 145.5t-32.5 184zM236 1024 l204 287h205l205 -287h-225l-82 164l-82 -164h-225zM338 512h410q-8 31 -23.5 60.5t-40.5 52t-60.5 37t-80.5 14.5q-92 0 -141.5 -51.5t-63.5 -112.5z" />
<glyph unicode="&#xeb;" horiz-adv-x="1075" d="M72 430q0 100 32.5 184t94 145.5t148.5 96.5t196 35q100 0 185 -36t146.5 -96.5t95.5 -140t34 -167.5v-103h-666q16 -78 71.5 -131t133.5 -53t130 20.5t109 81.5l193 -100q-78 -109 -178.5 -153t-253.5 -44q-109 0 -196 35t-148.5 96.5t-94 145.5t-32.5 184zM215 1024 v266h246v-266h-246zM338 512h410q-8 31 -23.5 60.5t-40.5 52t-60.5 37t-80.5 14.5q-92 0 -141.5 -51.5t-63.5 -112.5zM625 1024v266h245v-266h-245z" />
<glyph unicode="&#xec;" horiz-adv-x="501" d="M-61 1311h266l143 -287h-184zM123 0v860h256v-860h-256z" />
<glyph unicode="&#xed;" horiz-adv-x="501" d="M123 0v860h256v-860h-256zM154 1024l143 287h266l-225 -287h-184z" />
<glyph unicode="&#xee;" horiz-adv-x="501" d="M-57 1024l204 287h205l205 -287h-225l-82 164l-82 -164h-225zM123 0v860h256v-860h-256z" />
<glyph unicode="&#xef;" horiz-adv-x="501" d="M-78 1024v266h246v-266h-246zM123 0v860h256v-860h-256zM332 1024v266h246v-266h-246z" />
<glyph unicode="&#xf0;" horiz-adv-x="1136" d="M72 430q0 106 31.5 192.5t86 145.5t124 91t147.5 32q92 0 166.5 -25.5t126.5 -87.5h4v328h-287l41 205h246v184h256v-184h112v-205h-112v-1106h-256v82h-4q-51 -61 -126 -87t-167 -26q-78 0 -147.5 32t-124 91.5t-86 144.5t-31.5 193zM338 430q0 -53 17.5 -95t46 -70.5 t65.5 -44t76 -15.5q92 0 153.5 58t61.5 167t-61.5 167t-153.5 58q-39 0 -76 -15t-65.5 -44t-46 -71t-17.5 -95z" />
<glyph unicode="&#xf1;" horiz-adv-x="1085" d="M123 0v860h256v-82h4q51 61 124 87t152 26q152 0 233 -84t81 -254v-553h-256v471q0 92 -36 138t-128 46q-78 0 -126 -53t-48 -131v-471h-256zM205 1024v61q0 109 37 157t127 48q49 0 92 -16.5t83 -34.5t76.5 -34.5t75.5 -16.5q23 0 32 17.5t9 64.5h144v-62 q0 -109 -39 -156.5t-125 -47.5q-49 0 -92 16t-83 34.5t-77 35t-76 16.5q-23 0 -32 -17.5t-9 -64.5h-143z" />
<glyph unicode="&#xf2;" horiz-adv-x="1085" d="M72 430q0 100 32.5 184t94 145.5t148.5 96.5t196 35q106 0 193 -35t148.5 -96.5t95.5 -145.5t34 -184t-34 -184t-95.5 -145.5t-148.5 -96.5t-193 -35q-109 0 -196 35t-148.5 96.5t-94 145.5t-32.5 184zM246 1311h266l143 -287h-184zM328 432q0 -55 16 -100t45 -78 t68 -51.5t86 -18.5q45 0 85 18.5t68.5 51.5t45 78t16.5 98t-16.5 98t-45 78t-68.5 51.5t-85 18.5q-92 0 -153.5 -68.5t-61.5 -175.5z" />
<glyph unicode="&#xf3;" horiz-adv-x="1085" d="M72 430q0 100 32.5 184t94 145.5t148.5 96.5t196 35q106 0 193 -35t148.5 -96.5t95.5 -145.5t34 -184t-34 -184t-95.5 -145.5t-148.5 -96.5t-193 -35q-109 0 -196 35t-148.5 96.5t-94 145.5t-32.5 184zM328 432q0 -55 16 -100t45 -78t68 -51.5t86 -18.5q45 0 85 18.5 t68.5 51.5t45 78t16.5 98t-16.5 98t-45 78t-68.5 51.5t-85 18.5q-92 0 -153.5 -68.5t-61.5 -175.5zM451 1024l143 287h266l-225 -287h-184z" />
<glyph unicode="&#xf4;" horiz-adv-x="1085" d="M72 430q0 100 32.5 184t94 145.5t148.5 96.5t196 35q106 0 193 -35t148.5 -96.5t95.5 -145.5t34 -184t-34 -184t-95.5 -145.5t-148.5 -96.5t-193 -35q-109 0 -196 35t-148.5 96.5t-94 145.5t-32.5 184zM236 1024l204 287h205l205 -287h-225l-82 164l-82 -164h-225z M328 432q0 -55 16 -100t45 -78t68 -51.5t86 -18.5q45 0 85 18.5t68.5 51.5t45 78t16.5 98t-16.5 98t-45 78t-68.5 51.5t-85 18.5q-92 0 -153.5 -68.5t-61.5 -175.5z" />
<glyph unicode="&#xf5;" horiz-adv-x="1085" d="M72 430q0 100 32.5 184t94 145.5t148.5 96.5t196 35q106 0 193 -35t148.5 -96.5t95.5 -145.5t34 -184t-34 -184t-95.5 -145.5t-148.5 -96.5t-193 -35q-109 0 -196 35t-148.5 96.5t-94 145.5t-32.5 184zM205 1024v61q0 109 37 157t127 48q49 0 92 -16.5t83 -34.5 t76.5 -34.5t75.5 -16.5q23 0 32 17.5t9 64.5h144v-62q0 -109 -39 -156.5t-125 -47.5q-49 0 -92 16t-83 34.5t-77 35t-76 16.5q-23 0 -32 -17.5t-9 -64.5h-143zM328 432q0 -55 16 -100t45 -78t68 -51.5t86 -18.5q45 0 85 18.5t68.5 51.5t45 78t16.5 98t-16.5 98t-45 78 t-68.5 51.5t-85 18.5q-92 0 -153.5 -68.5t-61.5 -175.5z" />
<glyph unicode="&#xf6;" horiz-adv-x="1085" d="M72 430q0 100 32.5 184t94 145.5t148.5 96.5t196 35q106 0 193 -35t148.5 -96.5t95.5 -145.5t34 -184t-34 -184t-95.5 -145.5t-148.5 -96.5t-193 -35q-109 0 -196 35t-148.5 96.5t-94 145.5t-32.5 184zM215 1024v266h246v-266h-246zM328 432q0 -55 16 -100t45 -78 t68 -51.5t86 -18.5q45 0 85 18.5t68.5 51.5t45 78t16.5 98t-16.5 98t-45 78t-68.5 51.5t-85 18.5q-92 0 -153.5 -68.5t-61.5 -175.5zM625 1024v266h245v-266h-245z" />
<glyph unicode="&#xf7;" d="M96 512v225h963v-225h-963zM465 102v246h225v-246h-225zM465 901v246h225v-246h-225z" />
<glyph unicode="&#xf8;" horiz-adv-x="1085" d="M72 61l88 86q-88 117 -88 283q0 100 32.5 184t94 145.5t148.5 96.5t196 35q170 0 291 -86l88 86l92 -92l-88 -86q88 -117 88 -283q0 -100 -34 -184t-95.5 -145.5t-148.5 -96.5t-193 -35q-170 0 -291 86l-88 -86zM328 432q0 -59 18 -104l316 311q-27 16 -55.5 26.5 t-63.5 10.5q-92 0 -153.5 -68.5t-61.5 -175.5zM424 223q51 -39 119 -39q45 0 85 18.5t68.5 51.5t45 78t16.5 98q0 55 -19 102z" />
<glyph unicode="&#xf9;" horiz-adv-x="1085" d="M113 307v553h256v-471q0 -92 35.5 -138t127.5 -46q78 0 126.5 53t48.5 131v471h256v-860h-256v82h-5q-51 -61 -123.5 -87t-152.5 -26q-152 0 -232.5 84t-80.5 254zM236 1311h266l143 -287h-184z" />
<glyph unicode="&#xfa;" horiz-adv-x="1085" d="M113 307v553h256v-471q0 -92 35.5 -138t127.5 -46q78 0 126.5 53t48.5 131v471h256v-860h-256v82h-5q-51 -61 -123.5 -87t-152.5 -26q-152 0 -232.5 84t-80.5 254zM430 1024l143 287h267l-226 -287h-184z" />
<glyph unicode="&#xfb;" horiz-adv-x="1085" d="M113 307v553h256v-471q0 -92 35.5 -138t127.5 -46q78 0 126.5 53t48.5 131v471h256v-860h-256v82h-5q-51 -61 -123.5 -87t-152.5 -26q-152 0 -232.5 84t-80.5 254zM236 1024l204 287h205l205 -287h-225l-82 164l-82 -164h-225z" />
<glyph unicode="&#xfc;" horiz-adv-x="1085" d="M113 307v553h256v-471q0 -92 35.5 -138t127.5 -46q78 0 126.5 53t48.5 131v471h256v-860h-256v82h-5q-51 -61 -123.5 -87t-152.5 -26q-152 0 -232.5 84t-80.5 254zM221 1024v266h246v-266h-246zM631 1024v266h246v-266h-246z" />
<glyph unicode="&#xfd;" horiz-adv-x="901" d="M0 860h266l183 -450h4l182 450h266l-512 -1249h-266l205 491zM328 1024l143 287h266l-225 -287h-184z" />
<glyph unicode="&#xfe;" horiz-adv-x="1136" d="M123 -389v1884h256v-717q53 61 129 87t168 26q76 0 146.5 -32t124.5 -91t86 -145.5t32 -192.5q0 -109 -32 -193.5t-86 -144t-124.5 -91.5t-146.5 -32q-92 0 -168 25.5t-129 87.5v-471h-256zM379 430q0 -109 61.5 -167t153.5 -58q39 0 76 15.5t65.5 44t46 70.5t17.5 95 t-17.5 95t-46 71t-65.5 44t-76 15q-92 0 -153.5 -58t-61.5 -167z" />
<glyph unicode="&#xff;" horiz-adv-x="901" d="M0 860h266l183 -450h4l182 450h266l-512 -1249h-266l205 491zM143 1024v266h246v-266h-246zM553 1024v266h246v-266h-246z" />
<glyph unicode="&#x152;" horiz-adv-x="2211" d="M82 737q0 172 58.5 315.5t160.5 247t240.5 160t298.5 56.5q135 0 253.5 -41t217.5 -117v117h757l41 -267h-522v-327h461v-267h-461v-348h543l-41 -266h-778v117q-98 -76 -217 -117t-254 -41q-158 0 -296 56.5t-240.5 160t-162 246.5t-59.5 315zM358 737q0 -117 38 -212 t103.5 -161.5t153.5 -102.5t187 -36q98 0 186 36t153.5 102.5t103.5 161.5t38 212t-38 212t-103.5 162t-153.5 102.5t-186 35.5t-185.5 -35.5t-154 -102.5t-104.5 -162t-38 -212z" />
<glyph unicode="&#x153;" horiz-adv-x="1765" d="M72 434q0 102 35.5 187.5t99 145.5t151.5 93t193 33q102 0 190 -34t148 -103q51 70 137 103.5t188 33.5q111 0 200 -36t150.5 -103.5t95.5 -162.5t34 -214h-682q0 -96 63.5 -153.5t157.5 -57.5q35 0 63.5 1t56 10t56.5 27.5t64 53.5l184 -92q-41 -55 -84 -92t-93 -60.5 t-109.5 -33t-133.5 -9.5q-109 0 -203 35t-143 105q-47 -70 -141.5 -105t-198.5 -35t-192.5 34t-152 94.5t-99 145.5t-35.5 189zM330 434q0 -113 61.5 -181.5t159.5 -68.5t159.5 68.5t61.5 181.5q0 111 -61.5 179.5t-159.5 68.5t-159.5 -68.5t-61.5 -179.5zM1020 535h397 q-14 70 -59 117.5t-144 47.5q-98 0 -139 -48t-55 -117z" />
<glyph unicode="&#x178;" horiz-adv-x="1198" d="M0 1475h297l303 -697l301 697h297l-461 -1004v-471h-276v471zM270 1597v267h246v-267h-246zM680 1597v267h246v-267h-246z" />
<glyph unicode="&#x2c6;" horiz-adv-x="778" d="M82 1024l205 287h205l204 -287h-225l-82 164l-82 -164h-225z" />
<glyph unicode="&#x2dc;" horiz-adv-x="839" d="M82 1024v61q0 109 37 157t127 48q49 0 92 -16.5t83 -34.5t77 -34.5t75 -16.5q23 0 32 17.5t9 64.5h144v-62q0 -109 -39 -156.5t-125 -47.5q-49 0 -92 16t-83 34.5t-77 35t-76 16.5q-23 0 -32 -17.5t-9 -64.5h-143z" />
<glyph unicode="&#x2000;" horiz-adv-x="973" />
<glyph unicode="&#x2001;" horiz-adv-x="1946" />
<glyph unicode="&#x2002;" horiz-adv-x="973" />
<glyph unicode="&#x2003;" horiz-adv-x="1946" />
<glyph unicode="&#x2004;" horiz-adv-x="648" />
<glyph unicode="&#x2005;" horiz-adv-x="486" />
<glyph unicode="&#x2006;" horiz-adv-x="324" />
<glyph unicode="&#x2007;" horiz-adv-x="324" />
<glyph unicode="&#x2008;" horiz-adv-x="243" />
<glyph unicode="&#x2009;" horiz-adv-x="389" />
<glyph unicode="&#x200a;" horiz-adv-x="108" />
<glyph unicode="&#x2010;" horiz-adv-x="655" d="M82 389v225h491v-225h-491z" />
<glyph unicode="&#x2011;" horiz-adv-x="655" d="M82 389v225h491v-225h-491z" />
<glyph unicode="&#x2012;" horiz-adv-x="655" d="M82 389v225h491v-225h-491z" />
<glyph unicode="&#x2013;" horiz-adv-x="1269" d="M143 389v225h983v-225h-983z" />
<glyph unicode="&#x2014;" horiz-adv-x="2129" d="M82 389v225h1966v-225h-1966z" />
<glyph unicode="&#x2018;" horiz-adv-x="573" d="M164 963v245q0 45 14.5 91.5t37 87t52 76.5t60.5 65l143 -94q-31 -61 -46 -112.5t-15 -113.5v-245h-246z" />
<glyph unicode="&#x2019;" horiz-adv-x="573" d="M102 1004q31 61 46.5 112t15.5 113v246h246v-246q0 -47 -14.5 -92t-37 -86t-52.5 -78t-60 -64z" />
<glyph unicode="&#x201a;" horiz-adv-x="573" d="M102 -184q31 61 46.5 112.5t15.5 112.5v246h246v-246q0 -47 -14.5 -92t-37 -86t-52.5 -78t-60 -64z" />
<glyph unicode="&#x201c;" horiz-adv-x="921" d="M164 963v245q0 45 14.5 91.5t37 87t52 76.5t60.5 65l143 -94q-31 -61 -46 -112.5t-15 -113.5v-245h-246zM512 963v245q0 45 14.5 91.5t37 87t52 76.5t60.5 65l143 -94q-31 -61 -46 -112.5t-15 -113.5v-245h-246z" />
<glyph unicode="&#x201d;" horiz-adv-x="921" d="M102 1004q31 61 46.5 112t15.5 113v246h246v-246q0 -47 -14.5 -92t-37 -86t-52.5 -78t-60 -64zM451 1004q31 61 46 112t15 113v246h246v-246q0 -47 -14.5 -92t-37 -86t-52 -78t-60.5 -64z" />
<glyph unicode="&#x201e;" horiz-adv-x="921" d="M102 -184q31 61 46.5 112.5t15.5 112.5v246h246v-246q0 -47 -14.5 -92t-37 -86t-52.5 -78t-60 -64zM451 -184q31 61 46 112.5t15 112.5v246h246v-246q0 -47 -14.5 -92t-37 -86t-52 -78t-60.5 -64z" />
<glyph unicode="&#x2022;" horiz-adv-x="819" d="M41 522q0 76 28.5 143.5t79 118t118 79t143.5 28.5t143.5 -28.5t117.5 -79t78.5 -118t28.5 -143.5t-28.5 -143.5t-78.5 -117.5t-118 -78.5t-143 -28.5q-76 0 -143.5 28.5t-118 78.5t-79 117.5t-28.5 143.5z" />
<glyph unicode="&#x2026;" horiz-adv-x="1699" d="M164 0v287h266v-287h-266zM717 0v287h266v-287h-266zM1270 0v287h266v-287h-266z" />
<glyph unicode="&#x202f;" horiz-adv-x="389" />
<glyph unicode="&#x2039;" horiz-adv-x="481" d="M31 471l266 266l123 -123l-144 -143l144 -143l-123 -123z" />
<glyph unicode="&#x203a;" horiz-adv-x="481" d="M61 328l144 143l-144 143l123 123l267 -266l-267 -266z" />
<glyph unicode="&#x205f;" horiz-adv-x="486" />
<glyph unicode="&#x20ac;" horiz-adv-x="1464" d="M0 471l41 164h125q-2 16 -2 31v59q0 16 2 33h-166l41 164h147q25 115 78 209t129 161.5t172.5 104.5t210.5 37q92 0 166 -21.5t131.5 -58.5t100.5 -85t73 -102l-205 -143q-23 39 -47 68.5t-55 51t-71 33t-93 11.5q-129 0 -210 -74t-117 -192h512l-41 -164h-500 q-2 -16 -2 -31v-61q0 -14 2 -31h541l-41 -164h-471q37 -119 117.5 -192.5t209.5 -73.5q53 0 93 11t71 32.5t55.5 51.5t46.5 69l205 -144q-31 -53 -73.5 -101t-100 -85t-131.5 -58.5t-166 -21.5q-113 0 -208 37t-170.5 103.5t-130 160.5t-81.5 211h-188z" />
<glyph unicode="&#x2122;" horiz-adv-x="1556" d="M61 1290v185h553v-185h-184v-553h-184v553h-185zM696 737v738h185l184 -287l184 287h185v-738h-185v451l-184 -287l-184 287v-451h-185z" />
<glyph unicode="&#x25fc;" horiz-adv-x="860" d="M0 0v860h860v-860h-860z" />
</font>
</defs>
</svg>
